<?xml version="1.0" standalone="no"?>
<!DOCTYPE svg PUBLIC "-//W3C//DTD SVG 20010904//EN"
 "http://www.w3.org/TR/2001/REC-SVG-20010904/DTD/svg10.dtd">
<svg version="1.0" xmlns="http://www.w3.org/2000/svg"
 width="1000.000000pt" height="1000.000000pt" viewBox="0 0 1000.000000 1000.000000"
 preserveAspectRatio="xMidYMid meet">
<metadata>
Created by potrace 1.14, written by Peter Selinger 2001-2017
</metadata>
<g transform="translate(0.000000,1000.000000) scale(0.100000,-0.100000)"
fill="#000000" stroke="none">
<path d="M4665 8409 c-16 -5 -39 -6 -51 -3 -12 3 -32 0 -44 -6 -17 -9 -29 -9
-52 1 -23 9 -37 10 -62 1 -17 -6 -55 -12 -84 -13 -29 -1 -57 -8 -63 -15 -6 -8
-22 -11 -37 -8 -19 4 -38 -2 -64 -19 -20 -14 -40 -22 -45 -19 -4 4 -5 3 -1 -2
4 -4 1 -15 -7 -22 -16 -16 -55 -19 -55 -4 0 6 -8 10 -17 11 -15 0 -15 2 2 9
18 8 18 9 2 9 -10 1 -25 -6 -33 -14 -11 -11 -29 -13 -73 -8 -54 5 -60 4 -71
-16 -8 -16 -17 -20 -32 -15 -11 3 -30 2 -42 -4 -43 -21 -86 -31 -91 -21 -4 5
-13 5 -25 -1 -10 -5 -33 -10 -50 -10 -17 0 -29 -4 -26 -9 7 -11 -27 -21 -72
-21 -20 0 -31 -4 -27 -10 3 -5 -3 -10 -15 -10 -11 0 -23 -6 -26 -14 -5 -14
-57 -32 -80 -28 -10 2 -61 -18 -94 -37 -8 -5 -42 -16 -75 -26 -57 -16 -144
-53 -155 -65 -16 -19 -58 -40 -80 -40 -14 0 -42 -11 -62 -25 -20 -14 -44 -25
-53 -25 -8 0 -20 -11 -26 -24 -7 -14 -23 -26 -39 -30 -16 -3 -50 -28 -78 -56
-27 -27 -56 -50 -64 -50 -8 0 -21 -11 -28 -25 -7 -13 -26 -29 -41 -34 -16 -5
-29 -16 -29 -24 0 -8 -17 -32 -39 -53 -54 -55 -67 -64 -91 -64 -19 0 -46 -41
-42 -62 1 -5 -5 -8 -13 -8 -8 0 -15 -4 -15 -9 0 -5 -13 -13 -28 -19 -17 -6
-34 -22 -41 -41 -7 -16 -21 -33 -31 -36 -10 -3 -21 -18 -25 -33 -7 -32 -31
-62 -68 -86 -15 -10 -27 -23 -27 -29 0 -5 -11 -25 -25 -43 -14 -18 -25 -37
-25 -43 0 -23 -24 -60 -41 -64 -10 -3 -22 -13 -26 -24 -3 -10 -19 -34 -35 -54
-15 -20 -28 -40 -28 -44 0 -3 -7 -13 -15 -21 -8 -8 -19 -32 -25 -53 -5 -21
-17 -44 -25 -51 -8 -7 -15 -22 -15 -34 0 -28 -28 -107 -44 -126 -18 -21 -27
-48 -33 -95 -2 -22 -11 -50 -19 -62 -8 -12 -14 -33 -14 -46 0 -12 -5 -28 -11
-34 -8 -8 -7 -17 2 -34 19 -35 16 -59 -13 -104 -41 -65 -50 -85 -38 -85 5 0 1
-9 -10 -20 -11 -11 -20 -28 -20 -38 0 -10 -6 -27 -14 -38 -10 -13 -11 -23 -4
-31 8 -10 6 -13 -5 -13 -9 0 -14 -10 -14 -27 0 -14 -8 -32 -17 -39 -17 -12
-25 -68 -13 -81 4 -3 -2 -12 -12 -19 -18 -13 -21 -25 -35 -149 -3 -27 -8 -61
-11 -73 -4 -15 -2 -21 5 -17 7 4 7 -2 1 -18 -5 -14 -7 -34 -4 -46 3 -12 1 -21
-5 -21 -5 0 -14 -18 -20 -40 -7 -29 -7 -40 2 -40 6 0 4 -5 -4 -10 -13 -9 -12
-12 4 -25 11 -8 16 -15 12 -15 -5 0 -3 -7 4 -15 7 -8 8 -15 4 -15 -5 0 -17
-18 -27 -41 -19 -43 -17 -97 3 -109 8 -5 1 -12 -19 -21 -26 -12 -28 -16 -17
-29 22 -25 24 -44 5 -77 -10 -18 -14 -33 -9 -33 15 0 12 -26 -5 -40 -20 -16
-19 -35 2 -60 19 -22 19 -95 0 -119 -9 -11 -9 -15 0 -18 9 -3 10 -10 3 -23 -7
-13 -7 -21 0 -25 6 -4 8 -10 5 -15 -3 -5 2 -16 11 -24 10 -10 11 -16 4 -16 -8
0 -10 -9 -6 -24 4 -15 0 -30 -9 -39 -13 -13 -12 -15 5 -20 16 -4 20 -14 20
-49 0 -23 2 -76 4 -116 3 -53 0 -77 -10 -87 -18 -17 -18 -23 1 -41 8 -9 15
-31 15 -49 0 -19 5 -37 11 -40 7 -5 5 -15 -5 -31 -18 -27 -21 -51 -6 -56 13
-4 40 -97 30 -103 -5 -3 -7 -26 -5 -50 2 -36 -1 -48 -16 -56 -11 -5 -19 -20
-19 -34 0 -14 -9 -34 -20 -45 -24 -24 -25 -43 -6 -59 16 -13 19 -68 4 -77 -4
-3 -6 -10 -2 -15 3 -6 -4 -21 -16 -34 -16 -17 -21 -31 -16 -49 4 -18 1 -31
-11 -43 -11 -11 -18 -32 -17 -52 0 -18 -7 -49 -17 -68 -11 -22 -16 -46 -12
-64 4 -19 0 -36 -9 -47 -8 -9 -18 -25 -21 -34 -4 -10 -13 -18 -22 -18 -8 0
-15 -4 -15 -10 0 -5 -6 -10 -14 -10 -9 0 -16 -12 -18 -32 -2 -26 -11 -37 -40
-53 -29 -15 -38 -26 -38 -46 0 -14 -3 -29 -7 -33 -5 -4 -8 -11 -9 -14 -3 -23
-20 -45 -41 -53 -13 -5 -22 -13 -19 -18 4 -5 -6 -23 -20 -40 -14 -17 -24 -38
-21 -46 4 -9 -2 -15 -16 -17 -19 -3 -22 -8 -19 -45 2 -35 -2 -45 -22 -58 -17
-12 -23 -23 -20 -39 3 -17 -1 -25 -16 -29 -20 -5 -29 -47 -10 -47 18 0 10 -26
-14 -49 -14 -13 -22 -29 -19 -37 3 -8 0 -21 -6 -28 -8 -9 -8 -16 -2 -20 13 -9
2 -36 -14 -36 -16 0 -27 -42 -15 -54 15 -15 12 -43 -5 -50 -20 -7 -19 -25 2
-48 12 -13 14 -21 6 -29 -6 -6 -9 -18 -6 -25 3 -8 -2 -17 -11 -20 -14 -5 -14
-8 0 -29 8 -12 12 -29 9 -37 -4 -9 6 -33 20 -54 14 -21 23 -44 21 -51 -7 -16
-11 -17 59 8 63 22 98 46 89 60 -3 5 2 9 11 9 9 0 13 5 10 10 -3 6 -1 10 4 10
6 0 11 7 11 15 0 9 9 15 23 15 19 0 26 9 38 47 10 36 19 49 36 51 16 2 22 -3
25 -20 2 -16 11 -24 33 -29 l30 -5 -35 -9 -35 -9 35 -7 35 -6 -35 -2 c-28 -1
-36 -5 -37 -21 -1 -11 2 -20 6 -20 14 0 6 -55 -12 -83 -16 -25 -16 -27 2 -37
11 -5 27 -10 37 -10 12 0 15 -6 12 -25 -3 -14 -1 -25 4 -25 5 0 6 -9 3 -20 -6
-20 14 -50 33 -50 5 0 21 -11 36 -25 15 -14 31 -23 35 -20 10 5 87 -31 84 -39
-6 -13 -2 -14 26 -6 26 7 30 5 36 -17 4 -19 10 -23 23 -17 9 4 28 8 42 9 14 1
38 5 53 10 18 5 33 3 40 -4 6 -6 24 -11 39 -11 33 0 35 15 12 84 -21 60 -12
105 28 148 26 28 78 101 78 110 0 2 -15 4 -34 5 -23 2 -36 -2 -40 -12 -3 -8
-17 -15 -30 -15 -28 0 -49 -29 -40 -54 4 -9 0 -18 -10 -22 -9 -3 -20 -23 -26
-45 -9 -34 -13 -37 -33 -30 -12 4 -41 9 -65 10 -48 2 -120 37 -136 66 -6 11
-19 26 -29 33 -10 8 -17 24 -16 35 0 12 0 24 -1 27 -1 3 -3 15 -6 28 -2 12
-11 34 -20 48 -16 24 -16 25 3 30 15 4 20 15 21 40 2 38 15 68 43 100 22 24
23 114 2 114 -7 0 -20 11 -29 25 -21 32 -82 35 -109 5 -10 -11 -31 -20 -47
-20 -15 0 -28 -4 -28 -9 0 -5 -8 -12 -17 -15 -10 -4 -35 -22 -57 -41 -52 -47
-69 -46 -61 3 4 20 10 46 13 57 3 11 7 22 7 25 11 42 21 70 41 110 13 26 26
61 30 77 4 15 15 40 25 55 11 14 19 31 19 36 0 6 8 17 18 24 11 7 24 29 30 48
7 19 30 55 52 80 22 25 40 50 40 56 0 7 7 14 15 18 8 3 15 16 15 29 0 17 9 26
35 36 42 15 75 47 75 73 0 10 4 18 8 18 4 0 9 14 10 30 1 17 9 51 18 75 8 25
13 49 10 53 -3 5 2 21 10 36 7 16 14 37 14 47 0 11 4 19 9 19 8 0 10 9 12 78
0 15 7 34 14 42 16 18 21 49 11 72 -4 9 -2 27 5 40 7 13 13 26 14 30 0 3 3 10
8 14 4 4 7 18 7 30 0 14 8 25 19 29 16 5 18 11 11 37 -6 18 -6 38 0 47 9 18 9
39 -2 57 -4 5 -5 48 -3 94 3 58 0 92 -9 111 -8 16 -10 32 -4 42 5 10 4 18 -2
22 -6 4 -7 11 -4 17 11 17 13 78 3 78 -18 0 -8 18 14 24 19 5 20 8 7 19 -8 6
-15 21 -14 32 0 11 -2 25 -5 30 -3 6 -6 24 -7 40 -1 17 -8 55 -15 85 -8 33
-12 105 -11 178 1 102 -1 124 -13 129 -10 3 -12 9 -6 17 5 6 12 38 15 71 7 78
7 78 2 165 -2 52 0 82 10 97 7 12 15 50 17 85 2 36 14 85 26 113 15 33 20 60
16 81 -4 21 -1 35 10 44 8 7 15 29 16 49 0 20 4 45 8 56 6 13 3 29 -7 47 -14
24 -14 29 2 53 10 15 18 47 19 72 0 32 5 47 18 54 14 7 18 18 14 44 -2 19 0
37 6 41 5 3 7 14 4 25 -4 13 -1 21 11 26 36 14 53 36 48 62 -6 32 21 101 40
101 7 0 19 7 26 15 7 8 8 15 3 15 -15 0 -12 38 4 44 8 4 13 13 9 21 -3 8 -2
15 2 15 16 0 44 62 34 72 -7 7 -6 21 4 44 8 18 14 42 14 53 0 11 6 26 13 33 6
8 17 21 22 30 32 50 50 74 63 85 13 11 13 16 -3 39 -20 32 -7 47 37 41 15 -2
25 0 22 5 -3 5 2 22 10 40 9 17 16 41 16 53 0 13 7 25 15 29 19 7 20 26 1 26
-23 0 -28 17 -10 35 15 15 15 17 -5 22 -11 3 -21 11 -21 17 0 15 20 36 34 36
6 0 4 -5 -4 -10 -12 -8 -11 -10 8 -10 23 0 31 25 10 33 -8 3 -6 6 5 6 9 1 17
6 17 11 0 6 7 10 16 10 8 0 13 4 9 9 -3 5 0 13 6 16 6 4 8 18 5 31 -5 20 0 28
26 44 18 11 38 18 45 16 18 -7 35 20 28 44 -4 11 -2 20 4 20 25 0 80 77 73
103 -1 4 9 12 24 17 14 6 23 14 19 19 -3 6 7 9 22 8 19 -1 28 3 28 13 1 23 14
40 33 40 18 0 57 37 86 83 10 15 15 27 11 27 -14 0 44 41 79 55 37 16 45 30
24 38 -7 3 3 3 23 0 33 -5 37 -2 53 31 14 30 22 36 49 37 31 0 82 16 62 19 -5
1 0 5 13 10 12 5 22 17 22 27 0 21 65 53 108 53 15 0 40 7 55 15 15 8 34 12
41 9 7 -3 20 6 29 19 20 30 75 57 119 57 18 1 44 7 58 15 14 8 44 14 66 15 36
0 43 4 53 28 10 23 21 30 64 39 31 7 56 7 62 2 14 -14 30 -11 56 12 13 12 36
26 52 31 15 6 27 14 27 19 0 14 33 10 54 -6 17 -13 22 -12 44 5 13 11 33 20
43 20 9 0 50 16 89 36 57 29 71 41 67 55 -4 15 0 19 19 19 21 0 46 -15 78 -46
7 -8 19 -9 34 -3 14 6 31 5 42 -1 26 -14 40 -12 40 5 0 9 10 16 25 17 63 4 85
7 163 23 85 16 102 15 102 -11 0 -9 3 -14 8 -12 4 2 20 10 35 18 20 10 30 11
35 3 8 -12 79 -12 99 0 14 9 73 6 73 -4 0 -3 11 -11 25 -17 21 -10 28 -8 50
14 14 14 25 21 25 16 0 -6 11 -13 25 -16 14 -4 25 -11 25 -16 0 -6 8 -6 23 1
14 6 50 6 102 1 60 -7 83 -7 93 3 18 16 60 7 73 -16 6 -13 21 -19 44 -19 22 0
37 -6 44 -17 8 -15 13 -15 33 -5 28 14 86 13 96 -3 13 -21 70 -55 94 -56 108
-2 134 -10 124 -35 -5 -14 30 -20 93 -16 14 1 31 -3 37 -9 7 -6 18 -8 24 -4
12 8 80 -24 80 -37 0 -5 9 -8 20 -8 10 0 35 -16 54 -36 31 -31 38 -35 70 -29
58 11 82 0 106 -50 17 -35 27 -45 46 -45 13 0 24 -4 24 -10 0 -5 8 -10 18 -10
10 0 28 -7 41 -16 14 -11 33 -14 52 -10 30 6 51 -8 75 -49 6 -11 25 -23 42
-27 18 -5 32 -14 32 -21 0 -17 33 -44 47 -40 7 3 22 -7 34 -21 16 -19 33 -26
57 -26 24 0 33 -4 29 -13 -6 -17 29 -60 43 -52 5 3 10 0 10 -8 0 -8 18 -19 41
-26 22 -7 42 -20 45 -29 9 -28 21 -47 30 -47 35 -2 134 -89 134 -118 0 -7 17
-21 37 -32 21 -11 43 -31 49 -43 6 -13 17 -29 23 -35 6 -6 11 -19 11 -29 0
-10 4 -18 10 -18 17 0 82 -69 75 -80 -4 -6 -1 -32 6 -59 10 -42 10 -50 -6 -68
-14 -17 -18 -38 -17 -110 1 -48 2 -105 2 -126 0 -21 7 -48 15 -60 8 -12 15
-27 15 -35 0 -25 43 -72 66 -72 13 0 25 -4 29 -9 6 -10 32 -9 78 4 33 9 44 1
27 -20 -20 -24 -4 -43 51 -59 50 -15 54 -15 86 4 19 11 44 20 56 19 12 0 17
-3 11 -5 -16 -7 -5 -44 13 -44 9 0 13 -6 10 -15 -4 -8 -2 -17 4 -21 6 -4 6
-11 -2 -20 -9 -11 -6 -16 13 -23 25 -9 30 -33 14 -59 -4 -7 -1 -19 8 -28 9 -8
16 -24 16 -33 0 -10 6 -24 14 -30 8 -7 17 -34 21 -62 4 -27 11 -49 15 -49 5 0
8 -9 7 -20 -1 -11 -4 -20 -8 -20 -9 0 -5 -47 4 -57 4 -3 7 -18 7 -33 0 -18 8
-31 26 -41 23 -12 25 -18 21 -52 -5 -33 -2 -40 14 -44 20 -6 26 -28 9 -38 -20
-12 -11 -55 13 -64 23 -9 56 -41 42 -41 -5 0 0 -9 10 -20 15 -17 16 -20 2 -20
-10 0 -13 -6 -10 -20 3 -11 9 -20 13 -20 5 0 5 -14 0 -31 -7 -25 -5 -34 13
-52 12 -12 21 -27 19 -34 -1 -6 2 -14 8 -18 6 -3 0 -17 -15 -33 -28 -30 -30
-43 -12 -73 10 -17 9 -22 -5 -33 -18 -13 -19 -46 -3 -59 6 -4 0 -10 -12 -13
-17 -5 -23 -14 -23 -33 0 -19 -10 -32 -35 -49 -23 -14 -35 -30 -35 -45 0 -32
-27 -67 -66 -83 -28 -12 -34 -20 -34 -45 0 -17 -4 -39 -10 -49 -14 -26 -3 -47
33 -65 50 -25 90 -20 115 15 21 28 52 44 36 19 -3 -6 -1 -15 7 -19 10 -7 10
-11 0 -24 -11 -13 -11 -16 0 -16 10 -1 8 -4 -3 -11 -18 -10 -26 -59 -10 -59 8
0 32 -43 32 -57 0 -3 -7 0 -15 7 -12 10 -15 10 -15 -3 0 -8 6 -17 13 -20 16
-6 16 -45 0 -55 -6 -4 -10 -22 -9 -40 1 -17 -2 -32 -6 -32 -5 0 -7 -3 -6 -7 1
-5 -2 -20 -6 -36 -5 -17 -4 -32 3 -41 9 -11 7 -26 -10 -67 -11 -30 -21 -56
-21 -59 0 -11 -33 -60 -40 -60 -14 0 -9 -34 8 -58 17 -24 21 -67 11 -115 -8
-37 1 -57 24 -57 17 0 17 -2 -2 -35 -12 -19 -19 -41 -16 -49 3 -7 1 -18 -5
-24 -11 -11 10 -72 24 -72 13 0 9 -28 -6 -42 -20 -21 -18 -128 4 -153 19 -21
24 -86 7 -96 -5 -4 -6 -13 -1 -20 5 -8 9 -28 10 -45 0 -17 10 -44 21 -60 11
-16 18 -34 16 -40 -2 -6 19 -38 47 -70 27 -33 50 -67 50 -76 0 -10 4 -18 8
-18 5 0 9 -17 10 -37 1 -21 6 -39 12 -41 5 -2 10 -10 10 -18 0 -8 4 -14 9 -14
13 0 25 -39 23 -73 -2 -21 3 -30 23 -37 16 -6 25 -18 26 -32 1 -13 2 -27 3
-33 2 -18 30 -52 54 -64 17 -9 21 -17 16 -36 -4 -17 -1 -27 9 -31 9 -3 33 -31
54 -62 21 -31 41 -59 46 -60 4 -2 7 -16 7 -31 0 -35 21 -81 38 -81 6 0 12 -4
12 -10 0 -5 6 -7 13 -4 7 2 13 -4 14 -16 1 -11 -2 -20 -8 -20 -5 0 9 -18 31
-40 22 -22 39 -43 39 -48 -5 -32 3 -52 21 -52 13 0 20 -7 20 -19 0 -11 6 -22
13 -24 9 -4 8 -8 -3 -16 -19 -13 -60 -14 -60 -2 0 5 -9 13 -20 16 -22 7 -55
61 -42 68 9 6 7 55 -3 80 -4 9 -18 17 -31 17 -12 0 -27 6 -31 13 -14 23 -43
28 -50 9 -4 -9 -19 -29 -35 -43 -26 -24 -40 -58 -18 -44 14 9 12 -29 -2 -44
-11 -11 -10 -15 4 -24 14 -10 15 -13 1 -33 -13 -21 -13 -26 6 -52 11 -16 18
-32 14 -35 -11 -12 -11 -67 1 -67 6 0 3 -7 -8 -15 -19 -15 -14 -35 10 -35 8 0
14 -4 14 -10 0 -5 7 -10 16 -10 8 0 12 5 9 10 -4 6 8 10 28 10 26 0 36 6 44
23 9 20 16 22 59 19 71 -6 174 -5 209 1 17 3 34 6 38 6 5 1 5 6 2 12 -8 11 27
45 56 54 23 8 24 18 4 35 -18 15 -45 67 -45 89 -1 19 -56 84 -85 99 -11 6 -14
12 -7 12 15 0 16 30 1 30 -5 0 -8 4 -4 10 3 5 -3 18 -15 30 -11 11 -17 20 -13
20 4 0 -3 7 -15 16 -12 8 -22 24 -22 35 0 10 -4 19 -10 19 -5 0 -10 7 -10 15
0 8 -4 15 -10 15 -5 0 -10 5 -10 12 0 6 -11 26 -25 44 -14 18 -25 37 -25 43 0
5 -10 18 -23 28 -12 10 -28 36 -35 59 -6 22 -21 49 -32 59 -11 10 -20 24 -20
32 0 7 -4 13 -10 13 -5 0 -10 7 -10 15 0 9 -7 18 -15 21 -8 4 -15 15 -15 25 0
28 -30 97 -44 102 -7 3 -16 24 -20 48 -4 25 -17 53 -31 67 -14 13 -22 28 -19
33 3 5 -5 29 -17 54 -22 44 -22 45 -3 60 19 15 19 15 0 30 -11 8 -25 15 -30
15 -21 1 -93 181 -80 201 2 3 -1 21 -7 40 -6 19 -12 66 -14 106 -2 40 -6 76
-9 82 -4 5 -2 12 3 15 10 7 7 80 -4 107 -3 10 -2 20 4 23 6 4 8 13 4 21 -3 8
0 15 6 15 13 0 6 51 -10 83 -8 15 -8 22 2 28 8 5 10 9 5 9 -5 0 -3 6 3 14 9
11 7 15 -11 19 -20 6 -21 8 -6 24 21 25 48 83 48 104 0 10 -8 23 -17 29 -15
10 -14 10 8 6 25 -5 26 -4 29 52 2 31 3 78 3 105 -1 26 3 47 8 47 5 0 9 -4 9
-8 0 -5 9 -20 20 -33 23 -26 65 -36 84 -19 8 6 32 7 60 4 35 -5 51 -3 64 9 12
11 42 18 91 20 40 2 76 9 80 14 8 13 111 23 111 12 0 -17 37 -9 55 11 10 11
31 20 46 20 17 0 35 9 47 25 11 14 24 25 30 25 13 0 152 130 152 142 0 6 9 17
19 26 26 22 61 87 61 112 0 11 5 20 11 20 5 0 8 4 5 9 -4 5 -1 11 5 13 12 4
61 217 52 231 -3 5 2 27 11 50 13 36 20 42 46 43 16 1 30 -2 30 -6 0 -4 25 -8
56 -8 31 0 61 -5 66 -10 13 -13 54 -3 74 19 9 10 23 19 31 19 7 0 13 7 13 16
0 8 7 22 15 30 17 18 20 44 4 44 -5 0 -8 4 -5 9 13 20 -28 127 -61 160 -18 18
-33 39 -33 46 0 18 -66 58 -96 58 -18 0 -23 4 -20 16 4 10 -6 24 -29 39 -19
12 -38 22 -42 22 -5 0 -23 23 -41 50 -17 28 -38 50 -45 50 -6 0 -23 16 -36 35
-13 19 -28 35 -33 35 -5 0 -6 5 -3 10 3 6 1 10 -5 10 -6 0 -16 11 -22 25 -6
13 -18 27 -27 30 -9 3 -37 25 -62 49 -25 24 -56 47 -68 51 -23 7 -201 180
-201 196 0 4 -11 20 -26 34 -14 14 -23 29 -20 34 3 5 -5 20 -18 34 -13 14 -27
43 -31 64 -3 21 -18 53 -32 71 -13 18 -22 39 -19 47 6 17 -12 75 -24 75 -17 0
-19 49 -4 80 12 23 13 35 5 43 -6 6 -11 19 -11 28 0 10 -5 19 -11 21 -5 2 -10
19 -11 38 0 19 -8 44 -18 55 -10 11 -26 54 -35 95 -10 41 -24 85 -32 98 -8 13
-11 32 -8 42 4 12 2 20 -5 20 -6 0 -9 4 -5 9 3 5 1 12 -5 16 -6 4 -7 11 -4 17
4 6 0 14 -7 19 -11 7 -11 9 -1 9 10 0 10 5 2 20 -6 11 -8 25 -4 31 4 6 1 15
-7 19 -7 5 -13 21 -14 37 -3 37 -22 83 -35 83 -5 0 -10 6 -10 13 0 8 -9 22
-19 31 -11 10 -23 32 -26 50 -8 37 -61 96 -87 96 -10 0 -18 7 -18 15 0 8 -6
15 -14 15 -8 0 -27 7 -43 14 -40 21 -66 29 -82 27 -8 -2 -25 3 -38 10 -20 11
-27 10 -52 -8 -16 -12 -33 -18 -40 -14 -15 10 -113 2 -125 -10 -6 -5 -17 -9
-26 -9 -9 0 -25 -9 -35 -20 -10 -11 -26 -20 -36 -20 -10 0 -24 -7 -33 -15 -8
-9 -31 -22 -50 -30 -20 -8 -42 -27 -50 -43 -11 -19 -15 -22 -16 -9 0 9 -3 17
-8 17 -10 0 -42 -38 -42 -50 0 -5 -18 -22 -40 -36 -22 -15 -40 -31 -40 -36 0
-5 -6 -16 -14 -24 -8 -7 -12 -23 -9 -34 3 -11 0 -20 -6 -20 -6 0 -15 -9 -19
-20 -7 -20 -11 -18 -55 24 -26 24 -47 51 -47 58 0 20 -32 48 -56 48 -18 0 -84
61 -84 78 0 4 -8 12 -18 17 -55 30 -92 59 -92 71 0 8 -4 14 -10 14 -5 0 -23
14 -40 30 -17 17 -38 30 -46 30 -9 0 -27 9 -41 20 -14 11 -32 20 -39 20 -7 0
-21 11 -30 25 -9 14 -24 25 -34 25 -9 0 -29 11 -44 25 -15 14 -33 25 -40 25
-7 0 -22 9 -34 20 -12 11 -28 20 -36 20 -25 0 -46 12 -46 26 0 8 -10 15 -22
16 -38 2 -42 3 -68 20 -14 9 -35 19 -47 23 -13 3 -23 11 -23 16 0 5 -9 9 -19
9 -11 0 -23 4 -26 10 -3 5 -23 14 -44 20 -24 6 -41 17 -44 29 -3 13 -18 20
-51 25 -33 5 -51 14 -62 32 -12 18 -25 24 -52 24 -19 0 -44 8 -54 17 -10 9
-32 16 -48 16 -17 0 -30 4 -30 9 0 4 -18 8 -41 8 -27 0 -38 4 -33 11 10 17
-16 29 -64 29 -31 0 -50 6 -69 24 -22 21 -35 24 -91 22 -38 -1 -71 4 -81 11
-9 7 -28 13 -43 13 -16 0 -28 5 -28 10 0 13 -37 13 -45 -1 -5 -7 -12 -6 -23 4
-11 9 -51 17 -105 21 -49 3 -97 10 -106 16 -12 6 -27 4 -46 -6 -21 -11 -30
-12 -36 -3 -4 7 -19 10 -38 6 -17 -4 -33 -2 -37 5 -4 6 -23 8 -49 5 -23 -4
-56 -2 -72 2 -18 5 -51 4 -83 -2 -35 -7 -58 -7 -69 0 -9 6 -28 6 -46 2z m3213
-823 c13 19 41 24 50 9 10 -18 80 -55 104 -55 12 0 18 -8 18 -23 0 -13 7 -32
15 -43 8 -10 15 -27 15 -36 0 -9 9 -20 20 -23 20 -6 20 -14 4 -76 -2 -8 4 -24
15 -36 12 -13 16 -25 11 -34 -6 -9 -3 -20 7 -31 10 -11 17 -37 17 -69 1 -30 7
-53 15 -58 7 -5 11 -13 7 -19 -13 -21 6 -91 25 -97 11 -4 19 -13 19 -21 0 -8
5 -14 10 -14 12 0 13 -37 1 -44 -12 -8 11 -56 26 -56 7 0 10 -6 7 -14 -3 -8 8
-19 28 -29 22 -11 27 -17 14 -17 -15 0 -16 -3 -7 -14 10 -11 9 -16 -2 -23 -8
-4 -17 -18 -21 -29 -5 -17 0 -28 24 -46 28 -22 29 -26 20 -58 -7 -24 -6 -36 1
-41 7 -4 8 -12 5 -18 -4 -6 -2 -11 5 -11 8 0 9 -3 0 -14 -9 -10 -7 -17 5 -27
10 -8 20 -12 23 -9 3 3 9 -15 13 -40 7 -40 14 -62 38 -110 4 -8 18 -21 31 -27
13 -7 19 -13 14 -13 -6 0 -12 -11 -13 -24 -1 -20 5 -26 41 -38 23 -8 41 -19
39 -26 -1 -7 7 -22 18 -34 11 -12 19 -27 19 -32 -4 -31 2 -38 26 -32 20 5 25
3 25 -14 0 -11 6 -20 14 -20 8 0 16 -7 20 -15 3 -8 13 -15 22 -15 9 0 29 -8
44 -17 24 -14 33 -26 44 -63 6 -19 21 -30 42 -30 17 0 27 -8 34 -24 10 -28 27
-41 54 -41 14 0 22 -10 28 -32 5 -18 17 -34 28 -38 23 -7 60 -56 60 -78 0 -10
11 -17 27 -19 19 -2 29 -10 33 -28 4 -18 14 -26 35 -30 22 -4 26 -8 16 -14
-18 -12 4 -26 42 -26 16 0 26 -4 22 -9 -3 -5 8 -19 25 -31 16 -12 30 -30 30
-41 0 -12 7 -19 20 -19 11 0 20 -4 20 -10 0 -13 -47 -13 -55 -1 -3 6 -17 6
-34 1 -26 -7 -32 -4 -60 31 -34 41 -73 58 -94 41 -7 -6 -22 -9 -33 -6 -42 11
-63 -43 -39 -98 4 -10 5 -25 1 -33 -3 -8 -1 -15 5 -15 5 0 7 -10 5 -22 -3 -13
-7 -49 -10 -82 -3 -37 -11 -62 -21 -70 -17 -12 -19 -29 -9 -88 4 -25 2 -38 -5
-38 -6 0 -11 -7 -11 -15 0 -7 -6 -18 -12 -22 -29 -18 -40 -41 -29 -61 8 -16 6
-26 -10 -46 -11 -14 -27 -26 -34 -26 -8 0 -16 -8 -19 -17 -8 -23 -81 -54 -94
-41 -13 13 -61 -21 -62 -43 0 -8 -13 -28 -30 -44 -28 -27 -91 -46 -149 -45
-13 0 -30 -5 -37 -11 -11 -9 -54 -17 -124 -22 -24 -2 -25 0 -25 63 -1 65 10
110 27 110 5 0 6 10 2 23 -11 34 -12 61 -2 73 5 7 4 22 -4 39 -9 20 -9 31 0
45 9 15 8 26 -3 53 -8 19 -12 43 -9 54 4 15 -2 23 -26 33 -17 7 -38 20 -46 28
-13 12 -19 12 -47 -1 -18 -9 -38 -25 -45 -36 -13 -22 -52 -29 -52 -10 0 5 4 8
9 5 11 -7 19 32 16 84 -1 22 1 40 5 40 4 0 7 69 6 153 -1 128 -4 157 -18 180
-10 14 -18 37 -18 51 0 15 -7 27 -19 31 -13 4 -17 12 -13 31 3 17 -2 31 -17
45 -11 11 -21 32 -21 47 0 15 -7 37 -15 49 -9 12 -15 35 -14 50 1 15 -4 42 -9
58 -16 45 -40 135 -48 177 -3 21 -12 42 -20 49 -8 6 -14 24 -14 39 0 15 -7 33
-16 41 -10 8 -13 21 -9 36 3 13 1 23 -4 23 -5 0 -12 16 -15 35 -4 19 -11 35
-16 35 -6 0 -18 17 -27 38 -12 23 -26 38 -40 40 -19 3 -21 6 -12 26 6 12 27
28 46 35 20 7 55 32 80 55 39 37 44 45 43 86 0 25 2 58 6 74 4 19 3 27 -3 23
-6 -4 -9 5 -7 23 2 17 0 30 -5 30 -6 0 -11 10 -13 21 -2 12 -16 29 -33 38 -16
9 -42 25 -58 35 -23 16 -40 18 -116 12 l-90 -6 1 32 c1 18 -4 34 -11 36 -7 2
-9 15 -5 37 6 34 -17 95 -37 95 -6 0 -9 8 -7 18 2 9 -9 27 -25 41 -25 21 -32
23 -65 13 -20 -6 -50 -8 -67 -4 l-30 6 30 6 c26 5 30 10 30 36 0 16 8 38 18
48 9 9 17 22 17 27 0 5 6 9 14 9 8 0 17 8 21 19 3 10 19 21 35 25 17 3 45 21
64 39 35 36 63 51 84 48 6 -1 12 7 12 18 0 22 38 38 65 28 8 -4 27 0 41 8 24
12 31 12 56 -3 20 -11 31 -13 36 -6z m-443 -196 c-3 -5 -14 -10 -23 -10 -15 0
-15 2 -2 10 20 13 33 13 25 0z m-95 -150 c0 -5 -4 -10 -10 -10 -5 0 -10 5 -10
10 0 6 5 10 10 10 6 0 10 -4 10 -10z m817 -2220 c-1 -16 -6 -30 -12 -30 -5 0
-3 -5 5 -10 10 -7 11 -13 5 -17 -6 -5 -11 -35 -12 -68 -1 -33 -5 -70 -8 -82
-8 -25 -35 -32 -35 -9 0 8 -6 17 -12 19 -10 4 -9 8 2 16 13 9 13 11 1 11 -11
0 -12 3 -4 11 8 8 8 20 2 36 -5 14 -7 28 -4 33 3 5 0 10 -6 12 -6 2 -11 16
-10 31 4 69 5 69 27 64 13 -2 29 0 36 4 22 14 27 10 25 -21z"/>
<path d="M2263 6903 c-7 -2 -13 -9 -13 -14 0 -14 26 -10 40 6 10 12 10 15 -1
14 -8 0 -20 -3 -26 -6z"/>
<path d="M3770 6386 c0 -3 5 -15 12 -26 9 -15 9 -24 -1 -43 -7 -14 -10 -30 -7
-36 15 -24 14 -53 -4 -93 -10 -22 -16 -47 -13 -55 3 -7 -2 -13 -11 -13 -15 0
-15 -2 -2 -22 18 -29 14 -82 -8 -107 -18 -20 -12 -51 10 -51 20 0 17 -38 -6
-67 -23 -29 -16 -49 26 -82 20 -15 22 -21 10 -21 -10 0 -16 -9 -16 -25 0 -19
-5 -25 -22 -24 -22 0 -22 1 -3 9 15 6 7 9 -31 9 -34 1 -56 -4 -64 -14 -7 -8
-19 -15 -27 -15 -9 0 -13 -6 -9 -15 6 -17 -30 -45 -59 -45 -27 0 -105 -50
-105 -68 0 -8 -18 -21 -40 -29 -26 -11 -39 -21 -36 -30 3 -8 -2 -13 -14 -13
-20 0 -70 -43 -70 -60 0 -6 -5 -10 -11 -10 -5 0 -7 -5 -4 -10 3 -6 -1 -13 -9
-16 -9 -3 -13 -10 -10 -15 3 -5 -8 -9 -24 -9 -33 0 -55 -20 -47 -42 3 -8 -5
-23 -17 -35 -13 -11 -31 -30 -40 -42 -10 -11 -26 -21 -35 -21 -19 0 -46 -46
-37 -61 3 -5 -2 -9 -10 -9 -9 0 -16 7 -16 15 0 8 -5 15 -10 15 -7 0 -6 8 2 23
6 12 12 35 13 50 0 16 9 33 18 38 13 8 16 18 11 48 -4 24 -2 41 5 45 6 4 11
18 11 30 0 13 7 37 15 52 8 16 15 38 15 48 0 11 4 33 9 50 5 17 16 56 25 86
25 81 48 191 50 227 1 17 4 35 8 38 10 10 -26 42 -56 47 -14 3 -26 2 -26 -2 0
-4 -12 -12 -26 -18 -14 -7 -22 -16 -19 -22 8 -12 -35 -70 -51 -70 -22 0 -32
-31 -22 -68 10 -37 -4 -90 -29 -105 -9 -5 -11 -16 -7 -29 7 -24 -13 -103 -32
-119 -10 -8 -10 -15 -2 -29 9 -14 8 -24 -7 -47 -12 -17 -18 -42 -16 -64 1 -21
-3 -40 -8 -44 -6 -3 -9 -11 -6 -16 3 -5 -1 -6 -9 -3 -22 8 -32 -24 -17 -49 11
-17 10 -21 -2 -28 -17 -10 -31 -69 -28 -117 2 -21 -3 -34 -13 -38 -11 -4 -13
-16 -10 -43 3 -28 -1 -45 -17 -65 -15 -19 -18 -30 -11 -35 22 -13 18 -55 -5
-66 -22 -10 -32 -35 -14 -35 13 0 23 -52 23 -123 0 -34 4 -67 10 -74 11 -14 7
-44 -10 -61 -7 -8 -9 -24 -6 -38 4 -14 2 -24 -4 -24 -14 0 -26 -56 -16 -72 5
-7 9 -19 10 -26 1 -7 8 -20 15 -29 14 -17 21 -38 20 -68 0 -10 4 -25 10 -31 6
-7 11 -36 11 -64 1 -44 5 -53 24 -60 16 -6 25 -20 30 -45 3 -19 10 -35 15 -35
5 0 9 -9 9 -19 0 -33 11 -51 31 -51 12 0 19 -7 19 -20 0 -11 7 -23 15 -26 8
-4 12 -10 9 -15 -3 -6 1 -21 10 -34 23 -35 21 -43 -25 -88 -49 -46 -61 -102
-28 -125 11 -7 19 -18 19 -23 0 -15 53 -79 66 -79 15 0 55 -87 48 -105 -4 -10
0 -15 13 -15 18 0 49 -44 45 -62 -1 -4 5 -28 13 -53 11 -32 13 -50 6 -63 -7
-12 -7 -22 0 -29 14 -14 -17 -83 -37 -83 -20 0 -72 -40 -53 -41 8 0 2 -5 -13
-11 -16 -5 -28 -14 -28 -19 0 -5 -9 -9 -20 -9 -24 0 -35 -22 -24 -47 4 -10 6
-22 5 -26 0 -4 3 -16 9 -27 8 -15 6 -21 -9 -30 -11 -5 -29 -10 -40 -10 -12 0
-21 -7 -21 -15 0 -9 -11 -21 -25 -27 -19 -8 -22 -14 -13 -20 8 -5 -2 -8 -25
-8 -44 0 -77 -15 -77 -34 0 -7 -11 -23 -25 -36 -14 -13 -23 -30 -20 -38 3 -8
-10 -27 -30 -45 -24 -21 -33 -36 -29 -49 4 -13 0 -18 -14 -18 -16 0 -21 -9
-26 -50 -5 -40 -11 -50 -25 -50 -33 0 -43 -23 -25 -59 15 -29 15 -34 -2 -59
-10 -15 -24 -32 -32 -38 -10 -7 -13 -21 -9 -40 3 -19 -1 -36 -14 -53 -10 -13
-19 -27 -19 -31 0 -4 28 -10 63 -13 34 -3 78 -12 97 -20 l35 -15 2 66 c2 71
14 111 49 158 12 16 28 49 35 73 7 24 19 46 27 48 16 7 32 -14 25 -33 -3 -8 5
-16 20 -19 15 -4 24 -13 23 -23 -1 -11 8 -18 23 -20 14 -2 34 -10 46 -18 12
-8 29 -12 38 -9 8 4 19 0 23 -7 15 -22 13 -90 -2 -105 -8 -8 -14 -34 -14 -59
0 -28 -4 -44 -12 -44 -7 -1 1 -9 19 -18 37 -20 123 -18 123 2 0 7 11 23 24 35
34 32 96 20 96 -18 0 -9 6 -25 13 -34 10 -14 19 -14 62 -4 28 6 71 25 97 43
70 48 128 58 208 39 36 -9 82 -23 102 -30 32 -13 42 -12 72 0 19 8 37 23 40
33 4 10 25 27 49 37 23 10 47 25 53 34 10 13 14 13 28 2 9 -7 16 -9 16 -3 0
19 34 24 47 6 15 -21 7 -54 -18 -71 -22 -16 -14 -53 12 -53 10 0 61 -16 113
-35 93 -35 96 -36 148 -22 51 14 151 22 248 20 l45 -1 3 53 c3 46 0 54 -17 60
-12 3 -21 11 -21 16 0 6 -5 7 -12 3 -7 -5 -25 -7 -41 -6 -15 1 -38 -4 -50 -13
-28 -19 -86 -19 -114 0 -14 10 -24 12 -28 5 -3 -5 -10 -10 -15 -10 -12 0 -21
30 -13 43 4 7 8 18 8 26 0 16 75 42 125 42 40 1 80 23 80 43 0 8 6 16 13 19 9
3 8 16 -5 54 -21 59 -23 112 -5 117 6 3 24 7 39 10 15 3 34 14 44 24 10 9 25
18 33 18 9 1 22 3 29 5 8 2 19 -4 25 -13 9 -13 7 -21 -6 -36 -19 -21 -18 -75
4 -154 11 -44 19 -46 45 -17 25 29 75 49 119 49 30 0 35 3 27 16 -5 9 -5 35
-1 58 4 23 3 45 -2 51 -5 5 -9 16 -9 25 0 23 23 70 35 70 14 0 37 -39 30 -50
-4 -6 9 -10 28 -10 21 0 35 -5 34 -12 -1 -34 4 -46 20 -44 11 0 19 -7 21 -21
3 -20 53 -53 81 -53 6 0 11 -6 11 -14 0 -8 13 -17 29 -21 20 -4 28 -11 25 -20
-3 -7 0 -23 6 -35 9 -17 17 -20 46 -14 30 6 34 4 34 -16 0 -21 3 -22 41 -16
23 4 46 3 53 -2 15 -13 76 -21 76 -10 0 4 11 8 25 8 13 0 28 6 32 14 4 8 17
15 27 17 11 2 20 9 20 14 0 17 23 35 46 35 12 0 19 4 16 8 -2 4 3 13 13 19 15
9 21 4 45 -38 15 -27 36 -55 48 -63 19 -14 20 -19 9 -42 -6 -14 -9 -34 -6 -43
3 -11 -10 -33 -40 -64 -37 -39 -51 -47 -82 -47 l-37 0 61 -45 60 -45 33 16
c24 12 50 15 106 12 41 -3 106 0 145 7 60 10 79 10 132 -5 35 -9 77 -25 94
-35 18 -10 35 -16 38 -13 4 3 13 32 22 64 8 32 27 72 41 90 34 39 66 94 68
116 0 9 4 23 7 32 4 11 1 16 -10 16 -12 0 -13 3 -4 14 10 12 8 17 -8 26 -14 7
-21 21 -21 39 0 16 -7 34 -15 41 -8 7 -15 21 -15 32 0 11 -5 29 -11 40 -17 32
-12 238 7 259 7 8 14 22 14 30 0 8 9 25 20 39 11 14 20 31 20 39 0 8 6 11 16
7 10 -4 25 5 42 24 15 16 32 30 38 30 6 0 18 10 27 23 8 13 31 34 51 47 20 14
36 30 36 36 0 14 95 66 103 57 4 -3 17 -3 30 0 15 4 30 22 44 55 12 26 28 54
37 61 9 8 16 19 16 25 0 6 12 29 26 50 14 21 27 43 28 49 1 7 9 23 18 37 9 14
21 48 27 75 6 28 15 70 20 94 6 25 6 53 1 67 -5 13 -5 24 0 26 5 2 11 34 13
72 3 51 0 76 -12 97 -20 36 -42 41 -99 23 -26 -7 -57 -14 -69 -14 -24 0 -31
14 -12 25 6 4 7 19 4 35 -4 18 1 43 14 71 29 62 72 242 75 315 2 34 6 67 10
73 4 6 4 21 0 34 -4 12 -6 38 -6 57 1 19 -2 41 -7 49 -15 23 19 126 46 144 7
4 13 21 13 37 0 22 -8 33 -35 50 -25 15 -35 29 -37 48 0 15 -2 41 -4 57 -1 17
-5 77 -8 134 -3 58 -10 109 -15 114 -5 5 -7 24 -4 43 4 21 -1 47 -12 69 -9 20
-14 43 -11 50 3 8 -1 30 -9 48 -8 19 -12 43 -9 54 4 13 -1 26 -13 34 -10 8
-19 27 -21 44 -2 16 -7 34 -11 40 -10 12 -22 71 -22 106 0 15 -9 36 -20 47
-10 12 -19 27 -19 35 0 8 -9 22 -20 32 -11 10 -20 26 -20 37 0 12 -7 18 -21
18 -11 0 -17 5 -14 10 16 25 -25 6 -64 -30 -32 -30 -38 -40 -24 -40 15 0 16
-2 3 -10 -12 -8 -10 -10 9 -10 22 0 23 -2 9 -17 -10 -13 -13 -34 -10 -72 4
-48 7 -55 32 -64 28 -11 29 -11 12 -39 -15 -25 -15 -28 3 -48 10 -11 24 -20
32 -20 16 0 16 0 2 -54 -8 -34 -8 -50 5 -79 8 -21 22 -37 30 -37 16 0 21 -16
17 -54 0 -10 4 -24 9 -31 8 -9 8 -15 0 -20 -16 -10 -12 -36 8 -51 12 -9 14
-16 6 -21 -6 -5 -14 -26 -16 -48 -4 -31 -1 -45 16 -63 16 -18 21 -37 21 -82 0
-53 -2 -59 -22 -63 -13 -2 -29 3 -38 13 -16 18 -65 16 -65 -2 0 -5 -4 -6 -10
-3 -5 3 -10 15 -10 26 0 10 -7 19 -15 19 -8 0 -15 6 -15 14 0 8 -13 17 -28 21
-28 6 -92 64 -92 83 0 5 -13 15 -30 22 -16 7 -30 16 -30 19 0 4 -18 8 -40 9
-36 3 -40 0 -46 -25 -4 -15 -16 -43 -26 -61 -10 -18 -16 -38 -12 -43 3 -6 8
-30 11 -55 4 -39 2 -44 -16 -44 -12 0 -21 5 -21 10 0 6 -18 10 -39 10 -22 0
-46 6 -54 14 -7 8 -40 28 -72 45 -32 17 -73 42 -89 55 -17 12 -50 33 -73 46
-24 13 -45 31 -48 39 -3 9 -22 27 -42 41 -21 13 -54 37 -73 52 -19 16 -40 28
-47 28 -8 0 -13 12 -13 28 0 26 -25 62 -43 62 -10 0 -87 80 -87 91 0 4 -11 16
-25 25 -14 9 -25 23 -25 30 0 8 -7 14 -15 14 -17 0 -20 25 -5 35 18 11 11 35
-14 47 -14 6 -26 20 -28 32 -6 41 -42 31 -92 -26 -46 -52 -56 -84 -35 -105 7
-7 8 -19 4 -30 -14 -33 -13 -127 2 -156 7 -15 11 -33 6 -40 -12 -20 -3 -91 16
-117 16 -22 32 -65 36 -95 1 -5 7 -23 13 -38 7 -16 12 -34 12 -42 0 -8 4 -17
10 -20 15 -9 63 -115 56 -122 -3 -4 -16 3 -29 14 -12 12 -47 26 -77 32 -30 7
-57 16 -60 21 -7 12 -110 40 -143 40 -13 0 -32 7 -43 15 -24 16 -34 11 -34
-17 0 -10 -9 -28 -19 -39 -16 -17 -19 -33 -16 -84 2 -41 -1 -67 -8 -73 -7 -6
-42 -6 -87 -1 -41 5 -80 7 -87 4 -6 -2 -13 0 -15 5 -2 5 -35 16 -74 24 -88 19
-184 57 -184 73 0 7 -18 18 -40 24 -22 7 -45 18 -51 26 -6 7 -17 13 -24 13 -7
0 -15 9 -18 20 -3 11 -19 25 -36 31 -17 6 -31 17 -31 25 0 7 -15 17 -34 22
-34 10 -126 5 -126 -7 0 -3 -12 -19 -27 -36 -16 -17 -26 -38 -24 -50 3 -20 3
-20 -17 -1 -12 10 -24 31 -27 47 -4 17 -13 29 -23 30 -14 0 -13 2 2 8 14 5 16
10 8 15 -7 4 -12 16 -12 26 0 10 -5 31 -12 47 -7 15 -13 46 -15 68 -1 22 -5
78 -7 124 -3 46 -9 87 -15 90 -12 8 -20 141 -8 141 9 0 -3 115 -13 128 -2 1
-3 5 -4 10 -1 4 -5 13 -9 20 -5 6 -6 12 -2 12 3 0 1 9 -5 20 -9 17 -8 20 14
20 32 0 44 20 17 27 -13 3 -18 10 -13 17 4 6 8 69 8 140 1 70 6 131 10 135 11
8 12 238 1 269 -6 16 -16 22 -36 22 -16 0 -49 3 -75 6 -25 4 -46 4 -46 0z
m-10 -806 c0 -5 -4 -10 -9 -10 -20 0 -23 -41 -5 -61 13 -14 15 -22 6 -31 -8
-8 -8 -17 0 -31 16 -31 27 -76 19 -79 -5 -2 -11 -24 -15 -50 -6 -42 -5 -48 11
-48 14 0 15 -2 5 -9 -11 -6 -10 -10 4 -15 14 -6 16 -9 5 -15 -10 -6 -10 -10
-1 -16 8 -5 7 -12 -6 -26 -10 -12 -14 -25 -9 -36 4 -10 9 -27 10 -37 1 -10 9
-24 18 -30 9 -7 15 -26 14 -47 -1 -45 33 -127 56 -135 20 -6 40 -40 32 -54 -3
-6 -1 -10 6 -10 10 0 10 -3 1 -12 -9 -9 -2 -16 30 -30 23 -10 37 -22 32 -26
-5 -4 -40 -6 -78 -4 -47 3 -65 7 -55 13 9 6 -1 7 -28 3 -24 -4 -43 -3 -43 2 0
10 -67 10 -92 -1 -9 -3 -25 -2 -36 4 -14 8 -35 6 -77 -4 -41 -11 -61 -12 -70
-5 -9 7 -26 7 -56 1 -24 -6 -61 -11 -81 -11 -20 0 -39 -4 -42 -8 -3 -5 -34 -7
-70 -5 -46 3 -74 0 -95 -11 -16 -9 -43 -16 -60 -16 -16 0 -32 -4 -36 -10 -3
-5 -12 -7 -20 -3 -9 3 -27 -3 -41 -12 -22 -14 -28 -15 -35 -4 -12 19 -11 39 1
39 6 0 10 11 10 24 0 14 -4 28 -10 31 -13 8 -13 45 -1 45 6 0 16 -8 23 -18 7
-11 25 -21 39 -24 28 -5 41 14 54 82 4 19 16 45 26 58 10 13 16 29 13 36 -3 7
7 25 22 39 15 15 23 27 19 27 -4 0 10 17 31 37 21 20 38 38 36 40 -6 8 32 53
44 53 8 0 19 11 24 24 5 13 14 27 20 31 5 3 19 24 30 46 13 24 28 39 39 39 10
0 29 12 43 28 38 41 89 82 102 82 6 0 4 5 -4 10 -11 8 -9 9 10 5 20 -5 32 2
58 30 19 19 40 35 48 35 8 0 27 13 42 29 15 16 37 32 50 36 12 3 22 11 22 16
0 5 5 9 10 9 6 0 10 -4 10 -10z m1590 -250 c0 -5 -7 -10 -15 -10 -8 0 -15 5
-15 10 0 6 7 10 15 10 8 0 15 -4 15 -10z m49 -59 c17 -16 31 -38 31 -49 0 -14
16 -27 58 -46 72 -33 82 -42 107 -91 15 -29 30 -42 54 -49 19 -5 45 -20 59
-33 14 -13 31 -23 37 -23 7 0 16 -11 19 -25 5 -18 13 -25 31 -25 14 0 29 -8
35 -20 8 -15 21 -20 54 -20 40 0 44 -2 39 -21 -6 -20 -3 -21 22 -15 21 5 33 2
51 -14 14 -14 35 -22 59 -22 22 0 39 -6 42 -14 6 -16 39 -19 48 -4 4 7 12 7
25 0 28 -15 47 -12 67 9 10 10 27 21 38 23 13 2 20 11 20 26 1 22 45 72 64 72
6 0 10 -10 8 -22 -3 -34 40 -38 52 -5 10 27 57 42 65 22 3 -9 -3 -11 -17 -8
-20 4 -21 3 -5 -10 10 -8 15 -16 13 -19 -3 -3 9 -11 27 -19 18 -7 44 -24 58
-36 14 -13 33 -23 42 -23 11 0 15 -5 12 -15 -4 -8 0 -23 7 -32 19 -23 26 -283
7 -283 -4 0 -4 -16 -1 -35 5 -28 2 -35 -11 -35 -15 0 -16 -7 -11 -44 6 -35 4
-44 -10 -50 -11 -4 -14 -12 -10 -25 3 -10 -1 -23 -10 -31 -11 -9 -12 -17 -5
-30 14 -26 12 -40 -5 -40 -9 0 -15 -9 -15 -24 0 -14 -4 -27 -9 -30 -4 -3 -14
-26 -21 -51 -7 -24 -19 -50 -26 -56 -8 -6 -14 -18 -14 -26 0 -10 -6 -13 -16
-9 -16 6 -44 -15 -44 -33 0 -6 -18 -15 -40 -21 -36 -10 -39 -13 -29 -31 6 -11
7 -28 3 -37 -4 -9 -8 -23 -10 -31 -1 -8 -8 -18 -16 -22 -18 -11 9 -20 52 -17
49 4 52 -29 9 -102 -5 -8 -13 -25 -19 -37 -5 -13 -14 -23 -20 -23 -5 0 -10 -6
-10 -12 0 -11 -38 -65 -80 -115 -5 -7 -10 -17 -10 -22 0 -6 -7 -8 -15 -5 -10
4 -29 -9 -53 -34 -48 -52 -70 -62 -131 -62 -27 0 -52 -4 -55 -9 -3 -4 -43 -12
-88 -15 -46 -4 -110 -15 -143 -23 -33 -8 -78 -17 -100 -18 -22 -2 -92 -11
-155 -20 -63 -9 -127 -14 -142 -11 -16 3 -28 1 -28 -4 0 -13 -67 -13 -74 -1
-4 5 -17 6 -31 3 -14 -4 -68 -3 -120 2 -70 7 -101 6 -118 -3 -16 -8 -32 -8
-57 -1 -40 11 -56 13 -47 4 9 -9 -19 -34 -37 -34 -9 0 -15 6 -14 13 2 7 -10
13 -29 15 -18 2 -33 8 -33 14 0 6 -11 3 -25 -6 -19 -13 -52 -16 -150 -17 -70
0 -125 -4 -125 -10 0 -5 -4 -9 -10 -9 -5 0 -7 7 -4 15 7 18 -31 22 -41 4 -4
-6 -14 -7 -24 -4 -23 10 -85 16 -169 15 -47 0 -71 3 -67 10 3 5 -4 10 -17 9
-133 -2 -293 23 -272 44 4 3 -7 9 -22 12 -16 3 -46 9 -66 14 -30 6 -38 5 -38
-6 0 -10 -6 -12 -21 -8 -12 4 -28 8 -35 9 -7 1 -17 5 -20 9 -4 4 -21 7 -38 7
-17 0 -40 7 -50 15 -11 8 -30 15 -42 15 -12 0 -41 10 -64 22 l-41 22 5 80 c4
53 11 85 22 97 12 13 15 29 11 53 -3 18 -2 38 3 42 4 5 10 30 12 55 6 55 -9
69 -72 69 -26 0 -43 5 -46 14 -3 8 -12 12 -19 10 -7 -3 -23 4 -34 15 -12 12
-27 21 -34 21 -24 0 -92 38 -114 64 -13 14 -31 26 -40 27 -22 0 -71 59 -51 59
7 1 0 7 -17 14 -29 12 -29 13 -7 20 25 8 30 36 6 36 -8 0 -13 4 -9 9 7 12 -15
60 -37 83 -10 10 -18 27 -18 37 0 11 -5 23 -10 26 -6 4 -8 16 -5 27 4 12 0 27
-10 38 -12 13 -15 27 -11 46 5 18 2 30 -10 38 -14 11 -15 15 -3 34 8 12 23 22
35 22 12 0 27 7 34 15 7 8 21 15 32 15 11 0 29 12 40 26 15 18 23 22 28 13 4
-6 27 -12 51 -12 31 0 47 6 60 21 14 18 18 19 23 7 6 -15 59 -11 82 7 13 9 44
1 44 -13 0 -5 -5 -9 -10 -9 -6 0 -15 -11 -20 -25 -5 -14 -14 -25 -20 -25 -5 0
-10 -11 -10 -25 0 -14 4 -25 10 -25 5 0 9 -18 8 -40 -1 -21 -5 -37 -10 -34 -4
3 -8 -6 -8 -20 0 -14 -4 -27 -10 -31 -10 -6 -9 -65 1 -65 3 0 11 -11 17 -24 9
-20 7 -28 -8 -46 -19 -22 -19 -23 1 -52 17 -23 20 -38 15 -68 -3 -22 -2 -41 4
-45 5 -3 10 -15 10 -26 0 -10 5 -19 11 -19 5 0 7 -4 4 -10 -3 -6 5 -10 19 -10
19 0 26 -6 31 -31 9 -39 43 -79 67 -79 10 0 18 -7 18 -16 0 -12 9 -15 43 -13
80 5 96 1 90 -21 -3 -11 -14 -25 -25 -31 -15 -8 -17 -17 -12 -44 4 -25 1 -40
-16 -63 -17 -22 -25 -53 -31 -117 -10 -95 -7 -110 19 -96 20 10 50 7 64 -7 5
-5 18 -7 29 -5 15 4 19 14 19 46 0 25 6 44 16 52 12 8 16 26 16 60 -1 26 2 53
6 59 19 30 30 81 21 97 -13 25 -11 39 5 39 19 0 67 26 60 32 -3 3 17 6 43 7
26 0 84 4 128 9 54 6 86 5 99 -2 14 -8 20 -8 23 2 3 6 18 12 34 12 16 0 29 4
29 8 0 13 75 52 99 52 20 0 21 4 15 35 -5 29 -3 35 12 35 9 0 14 3 11 7 -4 3
-2 12 4 19 7 8 7 14 -1 19 -16 10 -12 35 8 35 10 0 13 3 6 8 -21 13 -26 62 -9
79 12 11 14 24 9 42 -10 38 -7 64 9 73 10 5 14 24 13 65 -1 32 1 70 5 85 6 22
2 30 -22 49 -22 17 -29 30 -29 56 0 31 -2 34 -27 31 -22 -2 -29 2 -31 19 -2
13 -12 29 -23 36 -10 8 -16 17 -12 20 3 4 1 7 -5 7 -15 0 -9 84 9 125 7 17 11
34 10 39 -1 5 12 6 30 2 17 -3 42 -6 55 -6 20 0 24 -5 24 -30 0 -24 4 -30 23
-30 12 0 31 -7 41 -15 15 -11 23 -12 33 -3 10 8 17 8 25 0 7 -7 8 -12 3 -12
-4 0 2 -9 15 -20 13 -11 37 -20 55 -20 24 0 34 -5 38 -20 5 -20 37 -29 37 -10
0 15 30 12 47 -5 10 -11 22 -13 37 -8 40 15 135 5 165 -17 35 -24 47 -25 55
-5 7 18 29 19 55 3 15 -9 24 -8 45 5 14 9 30 17 36 17 13 0 60 46 60 59 0 5
-4 11 -9 13 -9 3 -14 35 -12 70 2 27 38 32 63 9 23 -22 32 -24 85 -21 17 1 52
-10 79 -24 30 -16 56 -23 70 -20 13 3 39 1 58 -6 38 -12 74 -1 141 45 35 24
42 63 14 83 -11 7 -17 17 -15 21 5 8 -46 51 -60 51 -4 0 -16 7 -26 17 -13 12
-18 30 -18 68 0 50 -19 86 -50 97 -6 2 -13 16 -14 31 -2 14 -8 32 -14 39 -5 7
-10 26 -10 41 0 18 -8 34 -20 43 -22 15 -20 44 3 44 7 0 27 -13 44 -29z
m-2395 -172 c-3 -5 -10 -7 -15 -3 -5 3 -7 10 -3 15 3 5 10 7 15 3 5 -3 7 -10
3 -15z m3483 -145 c-3 -3 -12 -4 -19 -1 -8 3 -5 6 6 6 11 1 17 -2 13 -5z
m-2264 -104 c-3 -11 -7 -20 -8 -20 -1 0 -5 9 -8 20 -3 12 0 20 8 20 8 0 11 -8
8 -20z m-323 -445 c19 -5 22 -4 10 4 -13 9 -13 11 2 11 10 0 24 -14 32 -32 18
-38 56 -181 56 -212 0 -13 3 -16 8 -10 14 22 71 27 98 9 15 -9 35 -14 47 -11
30 8 67 -4 67 -20 0 -8 4 -14 9 -14 20 0 0 -85 -27 -113 -25 -26 -31 -28 -76
-23 -29 3 -55 1 -62 -5 -10 -8 -19 -6 -36 5 -28 20 -72 21 -87 2 -7 -8 -40
-17 -79 -20 -37 -3 -83 -7 -102 -9 -19 -2 -43 -7 -52 -11 -9 -4 -25 -3 -35 2
-10 6 -31 8 -46 5 -36 -7 -69 21 -61 52 3 13 1 32 -5 43 -8 16 -4 24 22 50 20
20 43 32 59 32 15 0 29 4 32 9 3 4 22 11 42 14 28 5 40 2 50 -11 20 -26 31 -1
28 60 -2 34 -8 54 -18 60 -20 11 -17 57 6 82 9 10 15 23 12 28 -3 5 0 16 7 24
13 16 32 15 99 -1z m-827 -532 c-7 -2 -19 -2 -25 0 -7 3 -2 5 12 5 14 0 19 -2
13 -5z m3654 -10 c4 -12 -35 -29 -44 -19 -8 8 18 37 30 33 6 -2 12 -8 14 -14z
m-3440 -143 c13 0 23 5 23 10 0 19 28 10 33 -10 3 -11 1 -20 -4 -20 -5 0 -9
-7 -9 -15 0 -8 -5 -24 -12 -34 -11 -18 -12 -17 -35 3 -13 12 -41 23 -60 26
-20 3 -38 10 -40 16 -4 14 59 42 72 32 5 -4 19 -8 32 -8z m3142 -347 c-32 -41
-64 -45 -71 -8 -5 24 -3 25 40 25 41 0 43 -1 31 -17z m-3082 -49 c-10 -10 32
-64 50 -64 12 0 14 -6 8 -27 -3 -15 -10 -30 -14 -33 -9 -6 -18 -31 -25 -74 -3
-16 -10 -34 -16 -40 -16 -16 -12 -41 10 -61 11 -10 17 -22 13 -28 -3 -5 -6
-24 -5 -40 1 -51 -13 -67 -54 -60 -28 5 -38 2 -49 -14 -10 -14 -22 -19 -38
-16 -18 4 -33 -6 -66 -43 -38 -40 -42 -48 -27 -56 17 -10 22 -38 7 -38 -5 0
-12 -13 -16 -30 -5 -21 -12 -30 -27 -30 -13 0 -18 5 -15 13 9 23 -8 38 -44 40
-19 1 -34 6 -34 10 0 4 -17 18 -39 31 -24 14 -34 26 -27 30 16 10 13 24 -6 29
-10 3 -2 5 18 6 20 0 48 10 61 21 14 10 28 17 31 14 13 -13 137 110 137 136 0
10 5 22 10 25 6 3 10 17 10 30 0 22 10 36 68 102 12 14 22 38 22 52 0 41 11
71 26 71 8 0 14 10 14 25 0 14 5 25 12 25 6 0 8 -3 5 -6z m2991 -16 c-7 -19
-38 -22 -38 -4 0 10 9 16 21 16 12 0 19 -5 17 -12z m-64 -27 c8 -13 -55 -71
-77 -71 -10 0 -21 -9 -24 -20 -3 -13 -14 -20 -29 -20 -17 0 -24 -6 -24 -19 0
-30 -41 -134 -63 -158 -15 -17 -17 -25 -7 -43 14 -26 9 -91 -10 -136 -12 -27
-11 -34 6 -57 10 -14 27 -28 37 -30 16 -5 15 -8 -8 -31 -30 -30 -35 -32 -35
-12 0 7 -9 16 -20 19 -11 3 -20 12 -20 21 0 9 -8 16 -19 16 -11 0 -43 25 -73
55 -29 30 -57 55 -62 55 -5 0 -24 16 -43 35 -22 23 -44 35 -61 35 -28 1 -72
30 -72 48 0 6 6 17 13 24 23 25 39 66 33 85 -4 12 0 25 9 33 8 7 15 19 15 27
0 8 7 21 15 30 13 12 18 13 31 2 14 -11 20 -10 38 12 22 26 23 26 45 8 18 -15
27 -16 43 -8 11 6 31 8 44 5 18 -5 31 0 51 20 25 25 29 26 60 14 31 -11 38 -9
72 14 20 14 44 26 52 26 7 0 23 7 33 15 22 17 42 19 50 6z m-2694 -21 c0 -5
-8 -10 -17 -10 -15 0 -16 2 -3 10 19 12 20 12 20 0z m17 -36 c-3 -3 -12 -4
-19 -1 -8 3 -5 6 6 6 11 1 17 -2 13 -5z m61 -1 c15 -3 19 -8 12 -13 -6 -4 10
-10 36 -14 27 -3 52 -2 57 3 11 11 65 3 84 -12 7 -5 22 -7 32 -4 25 6 36 -20
19 -41 -7 -8 -12 -18 -10 -21 1 -3 -6 -7 -18 -9 -11 -2 -25 -12 -30 -23 -6
-10 -18 -19 -26 -19 -8 0 -13 4 -10 9 3 5 -5 16 -19 25 -14 9 -25 13 -25 9 0
-5 -5 0 -11 10 -5 9 -17 17 -24 17 -8 0 -15 5 -15 10 0 6 -6 10 -13 10 -16 0
-86 51 -87 63 0 9 17 9 48 0z m1880 -102 c0 -20 4 -47 11 -59 7 -14 8 -22 1
-22 -5 0 -10 -9 -10 -20 0 -12 -7 -32 -16 -46 -11 -16 -15 -36 -11 -57 3 -18
-1 -50 -9 -72 -7 -22 -10 -41 -5 -43 14 -5 -21 -82 -37 -82 -8 0 -29 -8 -46
-19 -17 -10 -41 -22 -53 -25 -27 -9 -133 21 -133 37 0 18 -31 42 -89 70 -28
13 -48 27 -45 30 5 5 -30 47 -40 47 -2 0 -18 13 -35 29 -29 28 -30 30 -16 58
18 35 4 75 -32 94 -13 7 -21 15 -18 17 8 8 -29 31 -51 32 -12 0 -21 7 -21 15
0 8 4 15 9 15 5 0 6 5 3 10 -4 6 -12 7 -18 4 -9 -5 -8 -3 0 6 10 11 18 11 38
2 14 -7 41 -12 60 -12 19 0 35 -5 35 -11 0 -7 10 -5 25 5 13 9 33 16 43 16 10
0 23 5 29 11 9 9 20 6 42 -11 27 -19 40 -21 94 -16 34 3 78 10 96 16 27 7 40
6 58 -5 12 -8 28 -15 35 -14 9 0 9 2 -1 6 -23 9 47 40 80 35 26 -4 29 -8 27
-41z m-709 -17 c2 -2 2 -7 -2 -10 -3 -3 -16 2 -29 11 l-23 17 25 -7 c14 -4 27
-9 29 -11z m-1240 -55 c38 -23 70 -58 71 -76 0 -7 7 -13 15 -13 8 0 23 -8 33
-18 41 -44 72 -83 72 -92 0 -8 31 -13 56 -9 3 1 18 -11 32 -25 25 -23 31 -24
82 -17 70 9 116 31 112 54 -2 13 4 17 26 17 39 0 44 -8 25 -41 -13 -22 -14
-31 -4 -43 10 -12 9 -19 -11 -35 -13 -12 -38 -34 -56 -51 -19 -16 -38 -30 -42
-30 -5 0 -15 -10 -21 -22 -16 -30 -84 -78 -111 -78 -5 0 -26 -11 -46 -25 -20
-14 -44 -25 -54 -25 -9 0 -33 -11 -53 -24 -35 -24 -36 -25 -82 -8 -29 11 -50
26 -57 42 -6 14 -16 31 -23 38 -7 7 -13 22 -13 32 0 26 -47 36 -71 14 -21 -19
-79 -13 -103 11 -8 8 -19 15 -24 15 -4 0 -18 10 -30 23 -20 21 -20 25 -8 43
12 16 27 19 111 20 85 0 100 3 120 22 14 13 25 18 31 12 7 -7 17 -5 30 4 19
14 19 15 -5 47 -24 32 -38 76 -48 154 -3 22 -10 45 -15 52 -10 12 6 53 20 53
4 0 22 -9 41 -21z m548 -485 c-3 -3 -12 -4 -19 -1 -8 3 -5 6 6 6 11 1 17 -2
13 -5z m260 -210 c-3 -3 -12 -4 -19 -1 -8 3 -5 6 6 6 11 1 17 -2 13 -5z"/>
<path d="M5958 4268 c-28 -25 -48 -33 -48 -19 0 15 -56 23 -77 12 -17 -10
-253 -59 -358 -76 -12 -1 -38 -15 -59 -29 -21 -14 -48 -26 -60 -26 -36 -1 -56
-23 -50 -56 3 -15 10 -34 16 -42 9 -10 9 -16 -1 -21 -22 -14 9 -51 43 -51 16
0 34 -7 40 -15 15 -20 130 -22 181 -4 30 11 39 11 42 2 4 -10 11 -9 33 2 16 8
40 15 53 15 13 0 32 9 42 20 11 12 31 20 49 20 18 0 49 9 69 19 21 10 46 17
58 14 11 -3 28 2 37 11 11 9 33 15 55 14 20 -1 44 5 53 13 10 8 15 9 12 4 -5
-7 34 -10 120 -8 106 2 129 6 140 20 6 9 12 24 12 33 0 8 9 21 19 27 15 10 18
18 12 40 -6 21 -17 30 -47 39 -21 7 -52 19 -69 28 -16 9 -42 16 -57 16 -15 0
-38 5 -52 11 -20 9 -29 9 -41 -1 -19 -16 -111 -16 -129 -1 -10 8 -20 5 -38
-11z"/>
<path d="M5852 3830 c-23 -11 -45 -27 -48 -37 -3 -10 -16 -39 -28 -64 -16 -32
-21 -51 -14 -62 9 -17 1 -67 -12 -67 -8 0 -5 -85 5 -118 4 -12 12 -21 19 -20
6 1 24 -1 39 -5 39 -10 53 3 72 71 10 32 20 62 25 67 8 11 20 69 24 125 2 19
6 46 10 58 5 13 5 34 2 48 -8 29 -33 30 -94 4z m83 -40 c3 -5 1 -10 -4 -10 -6
0 -11 5 -11 10 0 6 2 10 4 10 3 0 8 -4 11 -10z"/>
<path d="M6127 3803 c-21 -15 -40 -38 -44 -52 -3 -14 -12 -32 -20 -39 -9 -10
-11 -25 -7 -48 5 -25 2 -40 -10 -53 -16 -18 -16 -21 0 -57 9 -22 18 -43 18
-48 1 -5 9 -14 18 -20 21 -12 74 4 71 22 -2 7 1 12 5 12 5 0 17 26 27 58 10
31 21 66 26 77 17 45 18 95 2 104 -12 6 -14 17 -10 40 6 27 4 31 -16 31 -12 0
-39 -12 -60 -27z"/>
<path d="M7315 5405 c-6 -9 -26 -16 -46 -17 -31 -1 -36 -5 -36 -24 0 -13 6
-29 13 -35 16 -13 19 -39 4 -39 -5 0 -10 -9 -10 -20 0 -11 5 -20 11 -20 7 0 9
-10 5 -25 -5 -19 0 -32 19 -51 23 -22 24 -27 10 -40 -19 -20 -19 -44 0 -71 10
-14 12 -24 5 -28 -16 -10 -12 -45 5 -45 13 0 14 -12 9 -70 -5 -61 -3 -75 17
-106 l21 -35 -21 -15 c-21 -15 -29 -44 -12 -44 5 0 9 -23 9 -51 0 -28 5 -56
10 -61 7 -7 8 -17 1 -29 -7 -14 -4 -23 12 -38 16 -14 19 -25 13 -43 -4 -12 -8
-26 -9 -30 0 -3 -3 -10 -7 -13 -4 -4 4 -22 18 -41 22 -29 24 -37 15 -68 -6
-25 -6 -36 1 -36 6 0 5 -7 -3 -16 -11 -14 -10 -18 5 -30 15 -11 17 -21 12 -54
-4 -27 -3 -40 5 -40 8 0 8 -4 0 -14 -10 -11 -8 -16 5 -24 11 -6 15 -17 11 -31
-4 -15 1 -29 14 -42 19 -19 26 -49 11 -49 -15 0 4 -90 22 -103 22 -16 29 -72
10 -88 -17 -14 -18 -36 -3 -41 6 -2 12 -26 13 -53 1 -36 -3 -54 -16 -67 -10
-10 -16 -23 -13 -29 4 -5 1 -16 -5 -24 -7 -8 -10 -25 -7 -37 3 -13 -1 -32 -9
-42 -8 -11 -14 -26 -14 -34 0 -29 -44 -102 -61 -102 -21 0 -43 -26 -34 -40 4
-6 -3 -22 -15 -35 -12 -13 -23 -37 -24 -53 -2 -36 -27 -62 -61 -62 -18 0 -29
-6 -32 -20 -4 -13 -14 -20 -30 -20 -30 0 -88 -34 -97 -55 -3 -8 -15 -15 -26
-15 -11 0 -20 -4 -20 -10 0 -5 -10 -10 -22 -10 -29 0 -42 -10 -46 -35 -6 -31
-31 -54 -66 -57 -26 -3 -35 -11 -56 -51 -20 -41 -28 -48 -48 -44 -22 4 -62
-21 -62 -39 0 -13 -76 -114 -90 -119 -8 -3 -23 -18 -32 -35 -11 -19 -22 -28
-32 -24 -16 6 -41 -30 -30 -47 3 -6 -3 -13 -15 -16 -12 -3 -21 -10 -21 -16 0
-6 -10 -21 -22 -34 l-21 -23 27 0 c15 0 50 -10 78 -22 52 -22 83 -17 83 13 0
8 12 25 28 39 15 13 27 30 27 37 0 8 11 19 25 25 13 6 27 19 30 30 4 10 10 18
15 18 4 0 10 9 13 20 3 13 14 20 31 20 16 0 30 8 37 23 7 12 17 25 23 29 13 9
36 -10 36 -31 1 -9 9 -34 20 -56 11 -22 19 -50 20 -62 0 -12 4 -24 9 -27 4 -3
11 -19 14 -34 4 -21 15 -33 38 -42 17 -8 63 -39 102 -71 48 -39 75 -55 85 -50
7 4 37 4 65 0 59 -10 68 -4 69 42 0 19 3 39 7 44 14 24 9 44 -17 61 -15 10
-29 19 -32 20 -22 4 -40 18 -40 30 0 17 -22 18 -37 3 -15 -15 -66 18 -59 38 3
8 -1 16 -9 19 -8 4 -15 13 -15 21 0 7 -11 25 -25 39 -14 14 -25 36 -25 49 0
13 -4 26 -9 29 -4 3 -7 26 -6 51 1 25 -3 49 -8 52 -11 6 69 83 88 83 7 0 18 6
24 14 7 8 22 11 38 8 16 -3 30 1 37 10 6 8 26 22 43 32 18 9 39 29 48 45 8 16
27 38 43 49 15 12 37 36 47 56 10 19 26 37 36 39 9 2 19 17 23 33 4 15 18 41
32 57 13 16 24 40 24 54 0 16 7 27 18 30 18 4 23 28 9 50 -4 6 0 14 9 17 8 3
13 10 9 16 -3 5 -1 18 4 28 5 10 12 40 16 67 3 27 10 54 15 60 5 6 7 42 4 80
-3 39 -7 102 -9 140 -7 116 -10 140 -19 146 -5 4 -11 31 -14 60 -2 30 -8 59
-11 64 -4 6 -8 26 -10 45 -1 19 -11 66 -22 103 -11 38 -18 75 -15 83 3 7 1 16
-4 19 -6 4 -10 24 -10 45 0 21 -5 42 -11 46 -6 3 -9 15 -6 25 7 25 -13 181
-24 196 -7 7 -6 14 0 18 6 3 9 29 6 63 -3 31 -8 91 -11 132 -3 41 -10 90 -15
107 -6 18 -10 48 -8 65 1 18 -1 49 -5 68 -3 19 -8 46 -10 60 -3 14 -5 25 -6
25 -1 0 -3 14 -4 30 -2 17 -8 44 -14 60 -7 17 -12 34 -11 38 0 5 -10 17 -22
28 -12 10 -17 19 -11 19 7 0 12 5 12 10 0 16 -34 12 -45 -5z"/>
<path d="M2253 5241 c10 -12 9 -14 -5 -8 -13 5 -18 1 -18 -13 0 -12 -9 -22
-22 -25 -20 -5 -23 -13 -25 -56 0 -28 -8 -58 -16 -67 -23 -28 -32 -46 -17 -37
15 9 7 -8 -19 -39 -12 -14 -12 -17 -2 -11 11 6 13 4 8 -8 -3 -10 -2 -17 3 -17
23 0 8 -29 -17 -32 -29 -3 -41 -38 -20 -60 15 -16 15 -37 0 -62 -6 -12 -8 -30
-3 -47 5 -15 6 -30 2 -33 -3 -3 1 -6 8 -6 10 0 10 -4 -2 -17 -9 -10 -13 -24
-11 -30 3 -7 0 -13 -6 -13 -6 0 -7 -7 -4 -17 4 -11 3 -14 -5 -9 -16 10 -16
-56 0 -72 8 -8 8 -15 -2 -27 -10 -12 -10 -15 4 -15 10 0 15 -4 12 -8 -3 -4 -1
-25 4 -45 4 -20 4 -39 -1 -42 -4 -3 -6 -12 -2 -20 3 -8 1 -15 -5 -15 -15 0 -2
-40 20 -62 21 -21 24 -44 6 -51 -20 -7 6 -42 30 -41 12 0 19 -3 16 -8 -3 -4
-1 -8 5 -8 6 0 15 -9 21 -21 10 -17 8 -21 -9 -26 -11 -3 -18 -9 -15 -14 3 -5
-1 -12 -10 -15 -21 -8 -16 -42 9 -49 18 -6 18 -8 3 -12 -15 -4 -16 -8 -7 -25
8 -15 8 -19 0 -14 -13 8 -14 -4 -2 -23 5 -7 5 -28 1 -45 -6 -27 -3 -35 13 -45
15 -10 18 -20 14 -47 -3 -20 -2 -34 4 -34 6 0 7 -4 4 -10 -3 -5 0 -10 8 -10 9
0 14 -11 14 -31 0 -17 6 -35 14 -40 10 -6 10 -9 2 -9 -20 0 -17 -97 2 -108 9
-4 16 -17 16 -28 -1 -10 -1 -26 -1 -34 -1 -38 11 -86 26 -97 18 -13 22 -61 7
-88 -6 -11 -7 -30 -3 -47 5 -17 5 -30 -2 -34 -5 -3 -7 -16 -4 -29 4 -15 1 -25
-9 -29 -10 -4 -15 -16 -13 -33 3 -26 0 -28 -34 -31 -20 -2 -42 -10 -48 -18 -7
-8 -19 -14 -26 -14 -8 0 -17 -13 -20 -30 -6 -30 -32 -46 -66 -41 -11 1 -18 -8
-23 -29 -5 -22 -14 -32 -33 -36 -36 -9 -62 -33 -55 -50 3 -8 -2 -23 -11 -33
-9 -10 -13 -21 -9 -25 5 -4 2 -6 -6 -4 -10 2 -15 -7 -17 -28 -1 -17 -9 -47
-18 -66 -16 -34 -16 -37 2 -70 11 -19 27 -60 36 -91 11 -38 22 -57 32 -57 9 0
18 -9 21 -20 3 -11 11 -20 18 -20 8 0 11 -8 8 -19 -4 -15 -1 -19 14 -15 31 8
45 -19 41 -80 -3 -55 -2 -56 27 -62 17 -4 48 -6 70 -5 46 1 158 -33 175 -55 7
-8 16 -14 21 -14 13 0 11 38 -2 42 -8 3 -6 9 5 20 14 15 13 17 -22 23 -21 3
-45 5 -53 3 -9 -2 -13 4 -11 15 2 10 -3 17 -12 17 -9 0 -13 6 -10 13 2 7 -7
26 -21 43 l-25 29 22 7 c13 3 17 6 11 7 -25 2 -13 19 17 26 17 4 30 10 30 15
0 4 14 13 31 19 35 12 34 30 -2 48 -18 10 -20 13 -6 13 14 0 17 7 14 35 -2 19
-7 38 -10 42 -4 3 -2 12 5 20 6 7 8 16 5 19 -3 4 0 13 8 20 18 18 9 47 -18 59
-14 6 -23 21 -25 39 -3 26 -6 28 -34 22 -17 -3 -37 -6 -44 -6 -15 0 -15 -21 1
-32 6 -4 -3 -8 -20 -8 -22 0 -26 -3 -18 -11 9 -9 8 -18 -4 -35 -8 -13 -11 -24
-7 -24 14 0 13 -48 -1 -54 -8 -3 -11 -13 -8 -25 3 -14 0 -21 -8 -22 -8 0 -5
-4 6 -9 11 -5 14 -9 7 -9 -7 -1 -10 -5 -7 -11 3 -5 -3 -10 -14 -10 -12 0 -21
5 -21 10 0 6 -6 10 -13 10 -14 0 -37 66 -37 110 0 32 29 100 42 100 5 0 7 4 4
9 -3 5 7 14 23 21 16 6 31 20 34 30 3 13 21 23 52 31 38 10 49 18 57 40 5 16
19 31 31 35 30 9 117 101 117 124 0 10 9 22 20 25 14 4 20 15 20 35 0 16 4 31
8 34 12 7 13 75 2 96 -6 11 -5 21 2 28 8 8 8 15 0 24 -17 21 -30 93 -21 111 6
9 3 26 -6 43 -8 16 -18 45 -21 64 -3 19 -11 40 -18 45 -6 6 -12 24 -13 40 -4
69 -15 125 -33 160 -14 27 -16 43 -10 55 7 13 4 22 -10 35 -17 15 -19 26 -14
67 4 30 3 48 -4 48 -10 0 -22 43 -25 95 -1 17 -8 40 -14 52 -8 13 -11 38 -7
65 4 33 0 53 -19 90 -16 31 -21 52 -15 62 5 9 7 54 5 101 -3 47 0 88 4 91 13
7 11 61 -1 69 -7 4 -4 19 10 42 16 28 19 45 14 79 -4 29 -2 49 6 59 6 8 10 32
9 54 -2 26 2 46 13 58 19 20 48 121 44 149 -2 10 3 25 10 32 11 10 11 17 1 33
-6 10 -17 17 -24 15 -6 -3 -17 1 -23 9 -8 10 -8 14 2 18 7 2 -6 4 -29 3 -35 0
-40 -3 -30 -15z m-39 -2655 c18 -9 22 -15 13 -19 -13 -5 -47 14 -47 27 0 9 4
8 34 -8z"/>
<path d="M7196 3965 c-11 -8 -29 -12 -43 -9 -18 5 -22 3 -17 -10 4 -10 1 -16
-7 -16 -12 0 -12 -2 0 -9 11 -7 9 -10 -8 -16 -23 -7 -26 -16 -10 -32 7 -7 7
-22 -1 -52 -6 -22 -10 -51 -8 -63 2 -24 -17 -99 -33 -130 -5 -10 -9 -26 -9
-36 0 -23 22 -72 33 -72 4 0 3 -9 -3 -20 -16 -29 13 -37 56 -16 19 9 40 16 47
16 15 1 48 68 36 76 -13 8 -11 24 2 24 19 0 61 52 51 62 -10 10 -4 56 9 64 5
3 9 20 9 39 0 19 5 37 11 41 6 3 8 15 6 26 -3 11 -2 30 3 43 6 16 4 26 -11 38
-11 10 -23 17 -28 17 -5 0 -18 11 -29 25 -23 29 -30 30 -56 10z"/>
<path d="M2863 3543 c-7 -2 -13 -11 -13 -19 0 -8 -10 -14 -26 -14 -19 0 -25
-4 -20 -15 3 -8 -2 -19 -11 -23 -13 -8 -16 -28 -16 -115 0 -108 14 -167 39
-167 8 0 14 -7 14 -15 0 -19 3 -19 42 5 18 11 41 20 51 20 10 0 17 8 17 19 0
11 4 22 9 25 9 6 27 113 22 131 -2 6 -3 30 -3 55 0 47 -21 85 -61 107 -24 13
-26 14 -44 6z"/>
<path d="M1458 2723 c7 -3 16 -2 19 1 4 3 -2 6 -13 5 -11 0 -14 -3 -6 -6z"/>
<path d="M4780 2407 c-59 -19 -72 -61 -28 -91 20 -14 20 -14 -1 -25 -12 -7
-21 -21 -21 -31 0 -11 -4 -20 -9 -20 -5 0 -11 -9 -14 -20 -3 -11 -2 -20 3 -20
11 0 23 -72 13 -79 -4 -3 -9 -22 -11 -41 -3 -43 -10 -116 -14 -150 -2 -14 2
-24 7 -23 14 2 17 -35 3 -43 -6 -4 -5 -10 3 -15 10 -6 11 -11 3 -16 -16 -12
-12 -142 4 -148 8 -3 11 -13 7 -24 -4 -14 0 -23 14 -30 25 -14 84 -14 76 -1
-4 6 5 10 20 10 19 0 25 5 23 18 -2 9 -7 20 -11 23 -12 9 3 59 18 59 22 0 27
19 11 36 -9 8 -16 25 -17 37 0 12 -2 32 -5 44 -2 12 1 25 6 28 5 3 7 12 3 20
-3 10 1 15 12 15 17 0 17 1 -1 21 -18 20 -18 21 6 41 14 11 20 17 13 14 -15
-8 -27 12 -29 47 -1 19 3 27 15 27 17 0 49 45 39 55 -6 6 -58 -18 -58 -27 0
-5 -4 -8 -9 -8 -10 0 -9 19 2 38 6 8 0 12 -20 13 -15 0 -21 3 -13 6 8 2 22 7
30 9 13 5 13 6 0 15 -11 8 -12 12 -2 16 18 7 15 23 -5 23 -16 1 -16 2 1 12 19
11 19 11 0 25 -16 12 -17 15 -4 24 11 8 12 12 3 16 -19 7 -16 21 8 28 14 5 18
12 13 23 -3 10 -6 25 -6 35 1 12 -7 17 -26 17 -29 0 -20 15 13 23 16 4 15 5
-5 5 -14 0 -41 -5 -60 -11z m-10 -57 c0 -5 -4 -10 -10 -10 -5 0 -10 5 -10 10
0 6 5 10 10 10 6 0 10 -4 10 -10z"/>
<path d="M6913 2398 c1 -7 -5 -13 -13 -14 -8 0 -24 -4 -35 -8 -11 -5 -32 -13
-48 -18 -22 -8 -25 -13 -16 -24 9 -11 9 -14 0 -14 -7 0 -10 -4 -7 -9 3 -5 -8
-11 -24 -14 -39 -8 -30 -32 17 -52 41 -17 46 -18 39 -6 -17 27 105 9 141 -21
15 -12 17 -58 3 -58 -5 0 -10 -13 -10 -30 0 -16 -5 -30 -11 -30 -6 0 -9 6 -6
14 6 16 -70 -22 -120 -60 -22 -17 -30 -29 -26 -44 3 -11 1 -20 -5 -20 -5 0 -9
-15 -8 -32 1 -23 7 -34 20 -36 10 -2 15 -9 12 -18 -3 -8 -1 -14 4 -14 6 0 10
5 10 10 0 16 22 12 36 -7 8 -11 13 -13 14 -5 0 6 4 12 10 12 5 0 7 -7 4 -15
-9 -21 10 -19 31 5 10 11 24 20 32 20 7 0 12 3 11 8 -3 15 14 41 25 37 7 -2
24 -6 38 -9 31 -7 46 -44 22 -53 -12 -5 -12 -7 -1 -14 11 -8 11 -11 -1 -18
-12 -7 -11 -10 2 -12 24 -6 7 -27 -25 -31 -14 -2 -33 -10 -42 -18 -10 -7 -30
-13 -46 -13 -16 0 -31 -6 -34 -14 -3 -7 -16 -13 -29 -13 -34 0 -49 -20 -32
-44 12 -16 12 -22 -2 -42 -14 -22 -11 -28 10 -25 4 0 7 -6 7 -14 0 -8 6 -15
14 -15 20 0 29 17 14 24 -7 3 6 3 28 0 33 -4 45 -2 55 13 8 10 21 19 29 21 8
2 17 8 18 13 2 5 21 12 43 15 29 5 39 11 39 25 0 11 7 19 16 19 8 0 12 -4 9
-10 -3 -5 -1 -10 4 -10 6 0 11 6 11 14 0 7 9 25 20 39 11 14 20 40 21 59 0 18
4 42 8 53 5 12 3 25 -6 33 -8 8 -11 23 -7 37 6 23 -13 55 -31 55 -4 0 -16 11
-27 25 -11 14 -26 25 -33 25 -12 0 -12 4 0 27 11 21 12 30 2 42 -9 10 -9 15
-1 18 14 5 1 76 -15 81 -5 2 -7 10 -4 18 3 9 -1 14 -12 14 -11 0 -15 5 -11 15
3 9 0 15 -8 15 -18 0 -28 27 -14 36 16 10 -39 36 -61 29 -14 -4 -20 1 -25 20
-6 25 -28 37 -23 13z m-63 -48 c0 -5 -4 -10 -10 -10 -5 0 -10 5 -10 10 0 6 5
10 10 10 6 0 10 -4 10 -10z"/>
<path d="M6475 2370 c-3 -5 -1 -10 4 -10 6 0 11 5 11 10 0 6 -2 10 -4 10 -3 0
-8 -4 -11 -10z"/>
<path d="M6430 2340 c-8 -5 -15 -17 -15 -27 0 -10 -5 -17 -12 -16 -7 2 -10 -4
-7 -12 5 -11 -2 -15 -25 -15 -26 0 -31 -4 -31 -25 0 -14 5 -25 10 -25 7 0 7
-6 0 -19 -5 -11 -10 -31 -10 -45 0 -14 -5 -26 -10 -26 -6 0 -10 -12 -10 -27 0
-57 -4 -78 -19 -93 -13 -13 -13 -15 2 -18 19 -4 22 -18 6 -28 -8 -4 -7 -9 2
-16 10 -7 11 -11 2 -14 -7 -3 -9 -12 -6 -20 3 -8 1 -14 -4 -14 -5 0 -8 -16 -7
-35 2 -19 -1 -35 -6 -35 -6 0 -10 -5 -10 -11 0 -6 9 -8 20 -4 18 6 20 2 18
-32 -1 -30 5 -45 26 -66 15 -15 24 -31 21 -37 -6 -10 32 -23 56 -19 22 3 79
-13 79 -22 0 -14 40 -10 55 5 8 7 12 16 9 19 -7 7 53 20 64 13 4 -2 14 -1 22
5 13 7 13 9 0 9 -13 0 -13 1 0 10 8 5 15 17 16 27 3 50 4 53 29 53 14 0 25 3
26 8 4 42 10 70 20 89 9 18 9 26 -1 38 -8 10 -9 15 -1 15 6 0 11 5 11 10 0 6
-7 10 -15 10 -8 0 -15 7 -15 15 0 9 9 15 22 15 17 0 19 3 10 12 -7 7 -8 16 -2
23 15 18 -11 65 -40 72 l-25 7 25 7 25 7 -23 7 c-12 4 -21 12 -20 19 3 14 -25
76 -34 76 -5 0 -8 -5 -8 -11 0 -8 -5 -8 -15 1 -8 7 -15 21 -15 32 0 14 -5 18
-15 14 -8 -3 -15 -2 -15 3 0 5 -11 12 -25 15 -18 5 -25 13 -25 31 0 13 -8 28
-17 33 -30 15 -78 21 -93 12z m119 -195 c6 3 9 0 6 -7 -3 -8 7 -18 26 -25 17
-7 28 -16 25 -22 -9 -14 12 -63 24 -56 5 3 10 -3 10 -15 0 -12 -4 -18 -10 -15
-6 4 -9 -19 -8 -63 2 -46 -2 -75 -11 -86 -7 -9 -10 -16 -6 -16 4 0 -7 -17 -24
-39 -17 -21 -28 -41 -24 -45 3 -3 1 -6 -5 -6 -6 0 -14 5 -17 10 -4 7 -13 6
-27 -1 -18 -9 -24 -8 -34 6 -8 10 -24 30 -37 44 -16 19 -21 33 -17 51 4 14 2
33 -4 42 -7 11 -6 24 1 40 7 15 7 32 0 51 -8 23 -6 31 9 41 11 9 18 26 18 49
0 28 5 37 21 41 17 5 18 8 5 17 -13 9 -13 10 1 6 9 -3 22 -1 30 3 8 5 19 5 26
-1 7 -6 17 -8 22 -4z m-119 -75 c0 -5 -2 -10 -4 -10 -3 0 -8 5 -11 10 -3 6 -1
10 4 10 6 0 11 -4 11 -10z"/>
<path d="M7741 2303 c-33 -33 -48 -73 -28 -73 5 0 6 -10 2 -22 -13 -44 -15
-192 -2 -200 9 -6 9 -8 -1 -8 -9 0 -10 -5 -2 -19 7 -14 7 -22 0 -26 -8 -5 -7
-12 2 -22 6 -8 13 -22 14 -30 5 -32 14 -43 38 -43 14 0 27 4 30 9 3 5 16 7 28
3 16 -4 19 -2 12 9 -6 10 0 9 19 -3 29 -20 67 -24 67 -8 0 16 44 11 86 -10 21
-10 33 -19 27 -20 -7 0 -13 -11 -13 -24 0 -13 6 -27 13 -29 9 -4 9 -8 -1 -15
-8 -5 -14 -13 -15 -18 -1 -5 -8 -8 -15 -7 -8 0 -11 -5 -8 -13 3 -8 1 -14 -4
-14 -6 0 -10 -9 -10 -20 0 -11 -7 -20 -16 -20 -8 0 -13 -4 -9 -9 3 -5 -7 -11
-22 -13 l-28 -4 24 -10 c17 -8 21 -13 12 -18 -7 -5 -18 -3 -24 3 -6 6 -19 11
-30 11 -10 0 -15 5 -12 11 4 6 -2 13 -14 16 -11 3 -18 10 -14 16 3 5 2 7 -4 4
-5 -3 -27 -2 -48 4 -29 8 -40 8 -46 -3 -5 -8 -2 -15 12 -20 11 -4 17 -12 14
-18 -4 -6 -11 -8 -16 -5 -15 10 -10 -12 7 -29 8 -9 12 -20 9 -26 -4 -6 7 -13
24 -16 17 -4 31 -10 31 -15 0 -5 11 -9 25 -9 16 0 25 -6 25 -15 0 -17 16 -20
25 -5 4 6 10 8 15 5 5 -3 11 -1 15 5 3 5 19 7 35 3 26 -5 30 -3 31 18 1 13 1
30 0 37 -2 16 4 15 23 -4 15 -14 17 -13 25 8 5 13 18 32 30 42 11 11 21 24 21
30 0 6 9 22 20 36 24 31 25 37 3 43 -17 4 -17 5 0 6 16 1 17 9 14 64 -6 79
-24 120 -50 113 -10 -2 -16 -2 -13 1 13 14 -16 43 -44 43 -16 0 -36 7 -44 16
-10 10 -24 13 -37 9 -51 -16 -108 -13 -126 7 -13 15 -15 23 -6 37 7 11 8 33 3
62 -8 40 1 79 17 79 19 0 113 -35 113 -42 0 -4 9 -8 20 -8 11 0 20 5 20 10 0
6 8 10 18 10 14 0 15 2 2 10 -12 8 -13 11 -1 19 11 7 11 9 0 14 -10 4 -9 6 4
6 27 1 20 21 -8 21 -14 0 -25 5 -25 11 0 5 -4 7 -10 4 -5 -3 -10 1 -10 9 0 19
-16 21 -23 4 -4 -8 -6 -7 -6 4 -2 28 -29 49 -49 37 -24 -15 -84 7 -62 22 12 8
10 10 -7 6 -13 -3 -23 -1 -23 4 0 15 -14 8 -49 -28z"/>
<path d="M2772 2259 c2 -7 10 -15 17 -17 8 -3 12 1 9 9 -2 7 -10 15 -17 17 -8
3 -12 -1 -9 -9z"/>
<path d="M5156 2241 l-48 -6 22 -20 c12 -11 30 -35 39 -53 l17 -33 32 60 c36
69 42 65 -62 52z"/>
<path d="M7435 2234 c-13 -10 -31 -13 -52 -9 -17 3 -34 1 -38 -5 -3 -5 -1 -10
5 -10 7 0 9 -7 6 -16 -4 -9 -1 -23 5 -30 6 -8 9 -23 6 -34 -6 -22 18 -29 26
-7 2 6 8 0 12 -16 4 -15 12 -27 19 -26 21 3 36 -1 35 -8 -3 -20 3 -35 22 -54
21 -21 21 -23 5 -50 -10 -16 -15 -33 -11 -38 3 -5 1 -12 -5 -16 -5 -3 -10 -15
-10 -26 0 -10 -7 -19 -15 -19 -11 0 -14 -7 -9 -24 6 -26 -7 -40 -41 -42 -11
-1 -33 -7 -50 -13 -16 -5 -51 -16 -77 -23 -42 -11 -48 -16 -48 -39 0 -15 -4
-29 -9 -31 -5 -1 -11 -12 -13 -23 -2 -14 3 -21 20 -23 12 -2 22 -10 22 -17 0
-19 35 -28 60 -15 11 6 29 8 40 5 10 -3 33 1 49 9 17 9 39 16 51 16 11 0 20 6
20 14 0 14 21 26 46 26 9 0 13 -4 9 -9 -7 -12 176 -2 189 10 5 5 4 14 -4 24
-7 8 -9 15 -5 15 4 0 2 6 -4 14 -9 11 -9 15 1 19 7 3 3 6 -9 6 -12 1 -23 6
-25 13 -3 9 -15 7 -42 -6 -21 -10 -40 -15 -43 -12 -4 3 -1 6 5 6 7 0 12 5 12
11 0 6 -8 9 -19 6 -17 -4 -18 -1 -9 31 5 19 8 46 5 59 -3 16 1 28 12 35 12 7
16 25 15 74 0 36 -6 70 -12 76 -7 7 -12 18 -12 25 0 7 -13 26 -30 43 -16 17
-30 35 -30 39 0 5 -14 18 -31 29 -19 12 -27 22 -20 26 12 8 15 26 4 26 -5 0
-17 -7 -28 -16z"/>
<path d="M2138 2218 c-10 -10 -18 -23 -18 -29 0 -6 -7 -8 -17 -5 -9 4 -20 1
-25 -6 -6 -9 -7 -5 -3 10 7 24 -12 32 -21 8 -3 -8 -11 -13 -18 -10 -7 3 -17
-10 -24 -30 -9 -25 -20 -35 -43 -40 -35 -7 -35 -29 -1 -34 17 -3 22 -10 22
-32 0 -18 8 -34 22 -44 16 -11 18 -16 8 -17 -8 0 -4 -6 10 -12 47 -22 52 -28
39 -43 -8 -10 -8 -18 0 -27 7 -9 7 -17 0 -24 -7 -7 -3 -12 15 -17 22 -5 25
-11 22 -37 -4 -40 -48 -66 -77 -45 -16 11 -26 11 -55 1 -49 -17 -58 -28 -43
-54 12 -18 11 -22 -6 -35 -20 -15 -20 -15 0 -30 17 -13 58 -21 68 -13 2 1 11
-4 20 -11 12 -10 30 -12 69 -6 29 4 45 9 36 12 -25 5 -23 22 2 22 11 0 20 -5
20 -11 0 -6 12 -9 28 -7 20 2 28 9 30 27 2 13 12 25 22 28 19 5 20 10 21 127
0 44 -4 82 -9 85 -4 3 -14 20 -21 38 -7 17 -28 45 -47 62 -19 18 -34 38 -34
45 0 22 28 39 54 34 23 -5 33 3 34 27 0 5 8 12 18 15 15 6 13 10 -14 25 -18
11 -32 23 -32 27 0 4 -8 16 -17 26 -17 16 -19 16 -35 0z"/>
<path d="M8638 2233 c7 -3 16 -2 19 1 4 3 -2 6 -13 5 -11 0 -14 -3 -6 -6z"/>
<path d="M3585 2210 c-4 -6 -14 -9 -22 -6 -23 9 -95 -15 -116 -38 -10 -11 -27
-35 -38 -53 -12 -19 -26 -33 -32 -32 -27 3 -48 -2 -43 -10 3 -5 -1 -11 -9 -15
-21 -8 -7 -36 19 -37 19 -1 18 -2 -4 -8 l-25 -8 25 -5 c23 -5 23 -5 -5 -7 -23
-1 -27 -3 -15 -11 10 -6 11 -10 3 -10 -19 0 -16 -18 5 -23 16 -4 16 -5 0 -6
-18 -1 -26 -21 -9 -21 15 0 22 -32 9 -47 -9 -11 -9 -22 1 -49 9 -26 10 -38 1
-49 -8 -10 -8 -14 1 -17 7 -2 12 -22 13 -43 1 -38 2 -40 30 -37 16 2 35 10 42
17 7 7 25 11 41 9 15 -2 22 -1 16 2 -19 9 -16 21 8 27 18 5 20 10 13 39 -18
77 -3 207 25 216 17 6 13 22 -5 22 -9 0 -14 6 -11 13 2 6 10 11 17 9 11 -2 11
0 2 11 -10 12 -7 18 12 31 33 21 33 21 61 -11 17 -19 23 -35 20 -51 -6 -23 9
-61 29 -74 8 -6 6 -11 -4 -18 -10 -6 -11 -10 -2 -10 17 0 15 -17 -5 -38 -23
-23 -28 -62 -8 -62 8 0 19 -9 24 -19 6 -10 25 -24 42 -30 40 -14 39 -14 33 3
-7 18 26 36 63 35 15 0 22 -3 16 -6 -22 -8 -14 -23 11 -23 13 0 26 -4 28 -9 2
-4 13 -12 26 -15 16 -6 22 -3 22 8 0 9 -9 16 -21 16 -11 0 -17 5 -14 10 3 6
15 10 26 10 10 0 18 3 18 8 -1 4 -1 9 0 12 1 3 4 21 7 40 7 53 9 63 24 95 7
17 12 35 11 41 -3 22 23 33 43 18 12 -8 14 -14 7 -14 -7 0 -11 -6 -8 -14 3 -7
1 -18 -4 -23 -7 -7 -5 -15 4 -24 12 -13 12 -16 0 -28 -9 -8 -12 -23 -9 -37 4
-13 3 -24 -2 -24 -10 0 -10 -46 0 -56 8 -7 -39 -57 -63 -67 -12 -5 -12 -7 1
-16 12 -9 11 -11 -9 -11 -20 0 -22 -2 -10 -16 11 -14 9 -19 -11 -35 -14 -10
-36 -19 -50 -19 -44 -1 -53 -13 -46 -64 7 -47 27 -61 52 -36 8 8 19 8 38 0 21
-8 35 -6 62 6 28 14 39 14 63 4 17 -7 28 -17 25 -25 -3 -7 1 -15 9 -18 10 -4
15 -18 14 -40 -1 -24 -5 -33 -14 -30 -8 3 -13 -3 -13 -19 0 -14 -8 -32 -18
-41 -20 -19 -52 -23 -52 -7 0 16 -37 12 -44 -5 -7 -19 -35 -19 -42 0 -4 8 -22
23 -41 32 -25 12 -33 21 -30 35 3 10 0 18 -6 18 -6 0 -7 3 -4 6 4 4 -10 15
-29 26 -32 17 -38 17 -58 5 -29 -19 -33 -67 -6 -67 26 0 26 -20 0 -27 -26 -7
-25 -14 5 -48 17 -18 33 -25 45 -22 22 6 28 -8 8 -16 -7 -3 -2 -6 12 -7 14 -1
19 -4 12 -7 -15 -6 30 -33 54 -33 8 0 11 -6 8 -15 -7 -16 20 -20 53 -8 16 6
15 8 -7 14 -20 6 -18 7 12 6 20 -1 36 -6 35 -12 -1 -5 9 -9 23 -7 78 8 102 15
125 38 13 13 31 24 40 24 11 0 15 11 15 46 0 37 4 47 19 51 24 6 34 29 23 51
-5 9 -7 31 -4 47 2 17 4 39 3 50 0 11 -2 62 -4 114 -2 63 -7 96 -15 99 -17 5
-15 22 2 22 9 0 12 7 9 20 -3 12 0 20 7 20 10 0 10 3 0 15 -7 9 -9 19 -5 23 4
4 10 1 12 -5 3 -7 12 -13 21 -14 11 0 12 -2 4 -6 -9 -3 -7 -11 7 -29 11 -14
17 -32 14 -40 -3 -8 0 -14 6 -14 6 0 8 -6 5 -14 -3 -8 3 -16 16 -19 12 -3 19
-10 16 -15 -3 -5 1 -15 9 -22 8 -7 15 -19 15 -26 0 -10 11 -12 45 -7 31 4 45
2 45 -6 0 -6 7 -11 15 -11 8 0 15 -7 15 -15 0 -8 5 -15 10 -15 6 0 10 7 10 15
0 22 21 27 67 17 l41 -9 7 34 c3 18 10 31 14 28 5 -2 14 2 21 10 10 12 10 18
0 30 -7 8 -9 15 -5 15 5 0 0 9 -9 19 -10 10 -14 21 -9 23 4 3 2 3 -5 1 -8 -1
-20 -3 -28 -3 -9 0 -13 -4 -9 -9 8 -14 -5 -19 -65 -26 -30 -3 -63 -8 -73 -11
-11 -4 -17 -1 -15 8 2 7 -7 14 -19 16 -14 2 -20 8 -16 18 3 8 0 14 -6 14 -6 0
-11 11 -11 25 0 14 -7 28 -15 31 -13 5 -12 9 5 24 13 11 20 30 20 54 0 23 7
43 20 56 12 12 18 25 15 30 -4 6 4 11 17 12 48 3 114 14 146 23 18 6 20 10 11
21 -13 16 -13 16 16 32 17 10 18 11 3 12 -10 0 -18 6 -18 14 0 17 -42 29 -51
14 -4 -7 -8 -6 -11 2 -10 32 -148 -3 -148 -37 0 -7 -7 -13 -15 -13 -8 0 -15
-7 -15 -16 0 -8 -13 -20 -30 -25 -16 -6 -30 -15 -30 -20 0 -5 -7 -9 -16 -9 -8
0 -13 -4 -9 -9 3 -5 1 -12 -5 -16 -6 -4 -8 -10 -6 -14 3 -4 8 -23 11 -41 7
-40 -16 -71 -46 -63 -17 5 -20 12 -17 44 2 27 0 39 -9 39 -7 0 -13 5 -13 11 0
5 5 7 10 4 6 -3 10 1 10 9 0 9 -4 16 -9 16 -17 0 -19 28 -5 55 8 15 14 42 14
60 0 28 -4 33 -31 39 -17 3 -28 9 -25 14 6 11 -87 4 -94 -7 -3 -4 -20 -11 -39
-14 -26 -6 -32 -4 -28 7 9 24 -54 -7 -67 -33 -7 -12 -14 -19 -17 -16 -3 2 -4
-11 -3 -30 2 -19 -1 -37 -7 -40 -5 -4 -6 -11 -3 -17 5 -7 1 -9 -9 -5 -12 5
-17 1 -17 -13 0 -29 -17 -33 -31 -8 -7 12 -19 29 -26 37 -9 8 -12 23 -9 37 7
27 -33 112 -44 94 -5 -8 -9 -4 -13 9 -3 14 -1 19 6 15 7 -3 3 1 -8 10 -11 8
-27 22 -36 31 -13 13 -18 13 -22 3 -5 -11 -7 -11 -15 1 -7 10 -11 10 -17 1z
m215 -322 c0 -21 -5 -28 -20 -28 -11 0 -20 -4 -20 -10 0 -5 -4 -10 -10 -10 -6
0 -6 9 0 26 6 14 10 36 10 50 0 22 2 23 20 12 12 -8 20 -24 20 -40z m760 -158
c0 -5 -7 -10 -15 -10 -8 0 -15 5 -15 10 0 6 7 10 15 10 8 0 15 -4 15 -10z
m-500 -344 c0 -3 -4 -8 -10 -11 -5 -3 -10 -1 -10 4 0 6 5 11 10 11 6 0 10 -2
10 -4z"/>
<path d="M2430 2188 c0 -7 -14 -26 -30 -42 -16 -16 -27 -33 -24 -37 8 -13 -15
-49 -31 -49 -10 0 -12 -9 -8 -37 3 -21 10 -43 15 -50 5 -7 5 -14 -2 -18 -14
-9 -13 -42 3 -49 9 -5 9 -7 0 -12 -7 -3 -9 -12 -6 -20 3 -9 -2 -14 -13 -15
-14 0 -12 -3 7 -10 20 -7 26 -15 22 -29 -3 -11 -12 -20 -20 -20 -8 0 -11 -5
-8 -10 4 -6 16 -8 28 -4 19 6 20 5 8 -10 -12 -14 -11 -16 3 -16 9 0 15 -6 14
-12 -2 -7 7 -14 20 -16 15 -2 22 -9 18 -17 -3 -8 -1 -17 5 -20 5 -4 7 -10 4
-15 -12 -19 101 -60 168 -60 26 0 47 5 47 10 0 6 9 10 20 10 14 0 20 7 20 21
0 14 5 19 13 16 17 -7 44 9 34 20 -5 4 -12 2 -16 -6 -6 -9 -10 -3 -14 18 -5
25 -12 31 -42 37 -19 3 -54 2 -76 -4 -38 -9 -41 -9 -49 14 -5 13 -19 33 -30
44 -12 12 -23 37 -25 55 l-3 33 34 -10 c19 -5 39 -6 45 -3 6 4 18 0 28 -9 18
-16 51 -13 51 5 0 5 6 9 14 9 8 0 25 9 38 20 12 11 33 28 45 37 12 10 24 28
28 40 5 18 1 24 -19 29 -24 6 -37 24 -18 24 9 0 32 44 32 62 0 6 -12 8 -33 4
-38 -7 -52 1 -36 20 7 9 4 14 -13 20 -13 5 -27 9 -33 10 -26 3 -45 18 -45 36
0 15 -4 18 -17 13 -47 -17 -101 -22 -118 -8 -23 16 -35 17 -35 1z m310 -122
c0 -3 -4 -8 -10 -11 -5 -3 -10 -1 -10 4 0 6 5 11 10 11 6 0 10 -2 10 -4z
m-157 -28 c40 -14 49 -28 18 -28 -11 0 -22 -4 -26 -10 -4 -6 -15 -6 -30 0 -14
5 -31 7 -39 4 -19 -7 -29 11 -21 37 8 23 26 22 98 -3z"/>
<path d="M8338 2193 c7 -3 16 -2 19 1 4 3 -2 6 -13 5 -11 0 -14 -3 -6 -6z"/>
<path d="M5450 2170 c11 -7 4 -11 -28 -16 -30 -5 -40 -10 -33 -17 7 -7 5 -14
-7 -23 -16 -12 -15 -13 5 -14 15 0 21 -5 17 -14 -3 -8 3 -19 15 -26 12 -6 21
-15 21 -21 0 -6 -7 -6 -20 1 -31 17 -24 -3 10 -25 29 -19 29 -20 7 -28 -12 -4
-17 -11 -12 -15 6 -4 11 -17 12 -29 3 -25 -11 -28 -56 -16 -23 6 -23 7 -5 14
15 6 13 8 -11 8 -23 1 -26 4 -15 11 24 15 6 20 -33 8 -22 -7 -37 -18 -38 -27
0 -11 -2 -12 -6 -3 -12 31 -86 -4 -75 -36 2 -7 -2 -12 -8 -12 -7 0 -10 -7 -6
-16 4 -10 -1 -22 -11 -30 -13 -9 -14 -13 -4 -14 9 0 11 -8 7 -25 -4 -14 -2
-25 4 -25 5 0 10 -10 10 -22 0 -13 11 -40 24 -62 14 -21 22 -45 19 -52 -6 -17
13 -19 21 -1 5 9 7 9 12 -1 4 -9 13 -7 35 9 20 14 27 16 23 6 -3 -8 0 -18 6
-22 7 -4 14 2 17 14 3 11 8 19 12 17 3 -2 12 2 19 10 11 12 10 14 -3 14 -8 0
-15 4 -15 9 0 6 16 7 35 4 21 -3 41 -1 50 7 17 14 23 11 39 -22 7 -13 18 -23
26 -23 8 0 18 -5 22 -11 5 -7 23 -12 40 -12 18 0 38 -2 43 -4 11 -3 15 11 8
30 -3 7 0 19 7 27 16 19 -3 45 -32 45 -10 0 -18 6 -17 13 3 16 -17 63 -30 72
-15 9 -14 26 2 22 6 -1 12 6 12 15 0 9 4 20 8 24 13 13 8 54 -12 94 -17 35
-17 41 -4 48 13 8 13 12 2 33 -8 13 -20 28 -27 32 -7 5 -10 12 -7 18 3 5 0 6
-8 3 -9 -3 -16 3 -20 15 -3 12 0 21 6 21 21 1 -26 30 -47 30 -17 0 -18 -2 -6
-10z m7 -36 c-16 -9 -32 -13 -35 -9 -9 9 19 25 43 24 16 0 15 -2 -8 -15z
m-109 -317 c15 -18 3 -60 -15 -53 -8 3 -21 6 -29 6 -10 0 -12 5 -7 13 4 6 6
20 5 30 -4 21 30 24 46 4z m42 -87 c0 -5 -4 -10 -10 -10 -5 0 -10 5 -10 10 0
6 5 10 10 10 6 0 10 -4 10 -10z m115 -40 c3 -5 1 -10 -4 -10 -6 0 -11 5 -11
10 0 6 2 10 4 10 3 0 8 -4 11 -10z m100 -30 c3 -5 -1 -10 -9 -10 -9 0 -16 5
-16 10 0 6 4 10 9 10 6 0 13 -4 16 -10z"/>
<path d="M8236 2165 c-3 -8 -11 -12 -19 -9 -9 3 -17 -10 -25 -47 -11 -46 -10
-53 8 -76 l20 -25 30 32 c16 18 27 37 24 42 -4 6 0 14 7 19 12 8 12 10 0 18
-11 7 -11 9 0 14 9 3 7 6 -6 6 -15 1 -17 3 -6 10 16 10 6 31 -14 31 -7 0 -15
-7 -19 -15z"/>
<path d="M2658 2163 c7 -3 16 -2 19 1 4 3 -2 6 -13 5 -11 0 -14 -3 -6 -6z"/>
<path d="M2930 2140 c0 -15 -5 -20 -15 -17 -14 6 -28 -7 -31 -30 -1 -6 -11
-22 -23 -34 -23 -25 -27 -39 -11 -39 16 0 29 -43 19 -61 -5 -9 -4 -20 3 -27 6
-6 7 -18 3 -29 -14 -31 -14 -47 -2 -55 9 -6 9 -8 0 -8 -7 0 -13 -4 -13 -10 0
-5 7 -10 16 -10 8 0 12 -5 9 -10 -4 -6 -11 -8 -16 -5 -5 4 -9 2 -9 -2 0 -5 10
-13 23 -18 15 -7 21 -17 19 -32 -2 -12 2 -24 7 -27 6 -4 7 -14 4 -23 -5 -13
-2 -15 20 -9 14 3 29 2 32 -4 3 -5 1 -10 -4 -10 -6 0 -11 -4 -11 -9 0 -14 93
-7 98 7 3 11 0 12 -17 2 -12 -6 -30 -9 -39 -7 -13 4 -12 5 4 6 11 0 29 10 39
21 10 11 25 20 34 20 13 1 13 3 -3 15 -17 13 -17 14 10 21 15 4 29 3 31 -2 2
-5 21 -8 42 -6 30 3 44 -1 60 -17 15 -15 28 -20 46 -15 14 3 22 10 19 15 -3 5
2 9 10 9 26 0 24 61 -2 94 -17 21 -22 37 -18 57 3 16 1 29 -5 31 -6 2 -13 19
-15 37 -2 18 -6 37 -10 42 -3 6 -1 15 4 22 6 7 10 24 9 39 -2 22 -6 26 -19 22
-10 -3 -18 -1 -18 5 0 6 5 11 10 11 6 0 10 6 10 13 0 10 -13 14 -43 13 -51 -2
-67 -11 -67 -36 0 -13 -5 -17 -15 -14 -11 5 -15 -1 -15 -23 0 -16 -3 -33 -7
-37 -4 -4 -6 -24 -4 -45 1 -22 -3 -42 -9 -46 -8 -5 -8 -11 1 -21 9 -11 9 -17
-1 -29 -10 -12 -9 -16 5 -21 12 -5 13 -9 5 -14 -16 -10 -4 -30 18 -30 11 -1 8
-6 -11 -16 -18 -9 -39 -13 -57 -9 -24 5 -28 10 -25 35 3 19 -1 30 -12 34 -12
5 -14 15 -10 43 4 23 2 43 -6 52 -10 12 -9 14 6 8 20 -8 21 -6 6 27 -8 18 -9
29 -2 38 6 7 8 27 6 45 -4 23 -12 33 -30 38 -18 4 -23 10 -18 24 3 11 1 22 -5
26 -6 3 -10 -3 -10 -15z m197 -355 c-4 -8 -14 -14 -24 -14 -17 1 -17 2 0 6 9
2 17 12 17 20 0 9 3 14 6 10 4 -3 4 -13 1 -22z"/>
<path d="M4957 2123 c-4 -3 -7 -13 -7 -21 0 -12 2 -12 17 -1 15 13 15 12 2 -8
-8 -13 -20 -23 -28 -23 -11 0 -11 -3 -1 -15 9 -10 9 -15 1 -15 -6 0 -11 -6
-11 -14 0 -8 -6 -17 -12 -19 -7 -3 1 -6 17 -7 26 -1 27 -3 10 -9 -19 -8 -18
-9 7 -21 26 -12 26 -13 25 -122 -1 -107 0 -110 25 -126 14 -9 35 -28 45 -41
14 -17 25 -22 39 -17 16 6 16 9 4 16 -12 8 -12 10 -1 10 10 0 11 3 2 14 -10
11 -8 16 8 21 17 5 19 10 10 33 -6 15 -11 66 -11 115 -1 86 -2 87 -32 107 -21
13 -25 20 -14 20 26 0 32 20 12 39 -11 10 -26 28 -34 40 -8 11 -20 21 -27 21
-7 0 -13 7 -13 15 0 15 -21 21 -33 8z"/>
<path d="M5928 2112 c-48 -16 -63 -31 -30 -33 13 0 14 -2 2 -6 -8 -3 -20 -12
-26 -20 -8 -9 -21 -12 -38 -7 -25 6 -37 24 -15 24 5 0 7 5 4 10 -10 16 -29 12
-53 -11 -19 -17 -23 -18 -28 -5 -3 9 -9 16 -13 16 -8 0 -7 -72 2 -86 4 -7 0
-15 -9 -18 -8 -3 -12 -10 -9 -16 3 -6 -1 -17 -9 -26 -21 -20 -12 -34 17 -26
18 4 20 3 10 -9 -6 -8 -9 -29 -7 -48 3 -23 -1 -38 -12 -46 -15 -11 -15 -13 5
-27 22 -15 22 -15 1 -21 l-21 -5 21 -36 c11 -20 16 -36 11 -36 -22 0 4 -38 33
-48 84 -31 123 8 91 89 -3 10 -2 20 4 23 6 4 8 13 5 21 -3 7 4 23 16 35 18 18
20 26 12 49 -8 21 -6 32 11 51 13 17 21 21 24 12 3 -6 9 -10 14 -6 5 3 5 14
-2 26 -13 24 -7 29 43 47 47 15 56 10 53 -33 -3 -29 1 -35 21 -40 28 -7 31
-32 8 -58 -12 -13 -14 -21 -6 -31 6 -7 13 -25 16 -39 3 -20 1 -25 -10 -21 -20
7 -18 -14 3 -25 15 -9 13 -13 -13 -37 l-29 -28 27 7 c16 4 30 1 34 -6 4 -7 3
-8 -4 -4 -16 10 -15 0 4 -29 18 -28 52 -33 60 -10 4 8 12 15 20 15 14 0 18 15
14 58 -1 12 3 22 9 22 16 0 18 34 1 47 -10 8 -11 12 -2 13 16 0 15 35 -2 69
-8 15 -12 38 -9 49 3 12 1 22 -4 22 -6 0 -9 12 -7 28 2 15 1 21 -2 14 -10 -21
-24 -2 -24 33 0 25 -6 38 -22 47 -13 7 -27 11 -32 10 -5 -2 -4 3 2 11 14 16 2
30 -33 40 -11 3 -33 9 -50 14 -21 7 -44 5 -77 -5z m89 -18 c-3 -3 -12 -4 -19
-1 -8 3 -5 6 6 6 11 1 17 -2 13 -5z"/>
<path d="M5778 2113 c7 -3 16 -2 19 1 4 3 -2 6 -13 5 -11 0 -14 -3 -6 -6z"/>
<path d="M2848 1913 c7 -3 16 -2 19 1 4 3 -2 6 -13 5 -11 0 -14 -3 -6 -6z"/>
<path d="M5838 1603 c7 -3 16 -2 19 1 4 3 -2 6 -13 5 -11 0 -14 -3 -6 -6z"/>
<path d="M2555 1590 c-3 -6 1 -7 9 -4 18 7 21 14 7 14 -6 0 -13 -4 -16 -10z"/>
</g>
</svg>
